STARTFONT 2.1
COMMENT
COMMENT Converted from OpenType font "..\ttf\ITC Avant Garde Gothic Medium.otf" by "otf2bdf.exe 3.0".
COMMENT
FONT -FreeType-ITC Avant Garde Gothic-Medium-R-Normal--44-320-100-100-P-215-ISO10646-1
SIZE 32 100 100
FONTBOUNDINGBOX 56 57 -4 -12
STARTPROPERTIES 19
FOUNDRY "FreeType"
FAMILY_NAME "ITC Avant Garde Gothic"
WEIGHT_NAME "Medium"
SLANT "R"
SETWIDTH_NAME "Normal"
ADD_STYLE_NAME ""
PIXEL_SIZE 44
POINT_SIZE 320
RESOLUTION_X 100
RESOLUTION_Y 100
SPACING "P"
AVERAGE_WIDTH 215
CHARSET_REGISTRY "ISO10646"
CHARSET_ENCODING "1"
FONT_ASCENT 43
FONT_DESCENT 11
COPYRIGHT "Copyright (c) 1991 Adobe Systems Incorporated.  All Rights Reserved.ITC Avant Garde Gothic is a registered trademark of International Typeface Corporation."
_OTF_FONTFILE "..\ttf\ITC Avant Garde Gothic Medium.otf"
_OTF_PSNAME "AvantGarde-Medium"
ENDPROPERTIES
CHARS 228
STARTCHAR 0020
ENCODING 32
SWIDTH 270 0
DWIDTH 12 0
BBX 0 0 0 0
BITMAP
ENDCHAR
STARTCHAR 0021
ENCODING 33
SWIDTH 270 0
DWIDTH 12 0
BBX 5 33 4 0
BITMAP
F8
F8
F8
F8
F8
F8
F8
F8
F8
F8
F8
F8
F8
F8
F8
F8
F8
F8
F8
F8
F8
F8
F8
F8
F8
00
00
F8
F8
F8
F8
F8
F8
ENDCHAR
STARTCHAR 0022
ENCODING 34
SWIDTH 315 0
DWIDTH 14 0
BBX 13 13 1 19
BITMAP
F8F8
F8F8
F8F8
F8F8
F8F8
F8F8
F8F8
F0F0
F0F0
F0F0
F0F0
F0F0
F0F0
ENDCHAR
STARTCHAR 0023
ENCODING 35
SWIDTH 562 0
DWIDTH 25 0
BBX 22 32 1 1
BITMAP
01E0F0
01E1E0
01E1E0
01E1E0
03C1E0
03C1E0
03C1E0
03C1E0
03C3C0
7FFFFC
7FFFFC
7FFFFC
7FFFFC
0783C0
0783C0
0783C0
078780
078780
078780
FFFFF8
FFFFF8
FFFFF8
FFFFF8
0F0F00
0F0F00
0F0F00
0F0F00
1E0F00
1E0F00
1E0F00
1E0E00
1E1E00
ENDCHAR
STARTCHAR 0024
ENCODING 36
SWIDTH 562 0
DWIDTH 25 0
BBX 19 41 3 -4
BITMAP
01F000
01F000
01F000
01F000
01F000
03FC00
0FFF00
1FFF80
3FFFC0
3F0FC0
7E07E0
7C03E0
7C03E0
7C0000
7C0000
7E0000
3F0000
3FE000
1FFC00
0FFF00
07FF80
00FFC0
001FC0
0007E0
0007E0
0003E0
0003E0
F803E0
F803E0
F807E0
7C07C0
7E0FC0
3FFF80
3FFF80
0FFF00
07FC00
01F000
01F000
01F000
01F000
01F000
ENDCHAR
STARTCHAR 0025
ENCODING 37
SWIDTH 832 0
DWIDTH 37 0
BBX 33 35 2 -1
BITMAP
07E0000000
1FF800E000
3FFC00E000
7FFE01C000
7C3E018000
F81F038000
F00F070000
F00F070000
F00F0E0000
F00F0C0000
F81F1C0000
7C3E380000
7FFE380000
3FFC700000
1FF8700000
07E0E00000
0001C00000
0001C00000
000383F000
000387FC00
00071FFE00
00061FFF00
000E3E1F00
001C3C0F80
001C780780
0038780780
0038780780
0070780780
00E0780780
00E03C0F00
01C03E1F00
01C01FFE00
03801FFE00
07000FF800
000003F000
ENDCHAR
STARTCHAR 0026
ENCODING 38
SWIDTH 675 0
DWIDTH 30 0
BBX 27 35 2 -1
BITMAP
00FC0000
03FF0000
07FF8000
0FFFC000
0FCFC000
1F87E000
1F03E000
1F03E000
1F03E000
1F03E000
1F87E000
0F87C000
0FCFC000
07FF87E0
03FF07C0
03FE0FC0
0FFC0F80
1FFC0F80
3FFE1F00
3F3F1F00
7E1FBE00
7C0FFE00
F807FC00
F807FC00
F803FC00
F801FC00
F801FE00
F801FF00
7C03FF80
7E07FFC0
7F0FCFC0
3FFF87E0
1FFF03E0
0FFE01C0
01F80080
ENDCHAR
STARTCHAR 0027
ENCODING 39
SWIDTH 225 0
DWIDTH 10 0
BBX 5 13 2 19
BITMAP
F8
F8
F8
F8
F8
F8
F8
78
78
78
78
78
78
ENDCHAR
STARTCHAR 0028
ENCODING 40
SWIDTH 405 0
DWIDTH 18 0
BBX 14 45 2 -11
BITMAP
0018
0038
0078
00F8
01F8
03F8
07F0
0FE0
0FC0
1F80
1F00
3F00
3E00
7E00
7C00
7C00
7C00
F800
F800
F800
F800
F800
F800
F800
F800
F800
FC00
7C00
7C00
7C00
3E00
3E00
3F00
1F80
1F80
0FC0
07E0
07F0
03F8
01FC
00FC
007C
003C
000C
0004
ENDCHAR
STARTCHAR 0029
ENCODING 41
SWIDTH 405 0
DWIDTH 18 0
BBX 14 45 2 -11
BITMAP
8000
E000
F000
F800
FC00
FE00
7F00
3F80
1FC0
0FC0
07E0
03E0
03F0
01F0
01F8
00F8
00F8
00F8
007C
007C
007C
007C
007C
007C
007C
007C
007C
007C
00F8
00F8
00F8
01F8
01F0
03F0
03E0
07E0
0FC0
1F80
3F80
7F00
7E00
7C00
7800
7000
4000
ENDCHAR
STARTCHAR 002A
ENCODING 42
SWIDTH 562 0
DWIDTH 25 0
BBX 17 16 4 16
BITMAP
01C000
01C000
01C000
01C000
01C000
71C700
FFFF80
FFFF80
1FFC00
03E000
07F000
077000
0E7800
1E3C00
3C1E00
080800
ENDCHAR
STARTCHAR 002B
ENCODING 43
SWIDTH 607 0
DWIDTH 27 0
BBX 23 22 2 1
BITMAP
007C00
007C00
007C00
007C00
007C00
007C00
007C00
007C00
007C00
FFFFFE
FFFFFE
FFFFFE
FFFFFE
007C00
007C00
007C00
007C00
007C00
007C00
007C00
007C00
007C00
ENDCHAR
STARTCHAR 002C
ENCODING 44
SWIDTH 270 0
DWIDTH 12 0
BBX 5 12 4 -6
BITMAP
F8
F8
F8
F8
F8
F8
38
38
78
F0
E0
80
ENDCHAR
STARTCHAR 002D
ENCODING 45
SWIDTH 270 0
DWIDTH 12 0
BBX 12 4 0 11
BITMAP
FFF0
FFF0
FFF0
FFF0
ENDCHAR
STARTCHAR 002E
ENCODING 46
SWIDTH 270 0
DWIDTH 12 0
BBX 5 6 4 0
BITMAP
F8
F8
F8
F8
F8
F8
ENDCHAR
STARTCHAR 002F
ENCODING 47
SWIDTH 495 0
DWIDTH 22 0
BBX 18 38 2 -5
BITMAP
0007C0
000F80
000F80
000F80
001F00
001F00
001F00
003E00
003E00
003E00
007C00
007C00
007C00
00F800
00F800
00F800
01F000
01F000
01F000
03E000
03E000
03E000
07C000
07C000
07C000
0F8000
0F8000
0F8000
1F0000
1F0000
1F0000
3E0000
3E0000
3E0000
7C0000
7C0000
7C0000
F80000
ENDCHAR
STARTCHAR 0030
ENCODING 48
SWIDTH 562 0
DWIDTH 25 0
BBX 21 35 2 -1
BITMAP
00FC00
07FF00
0FFF80
1FFFC0
3F07E0
7E03F0
7C01F0
7C01F8
F800F8
F800F8
F800F8
F800F8
F800F8
F800F8
F800F8
F800F8
F800F8
F800F8
F800F8
F800F8
F800F8
F800F8
F800F8
F800F8
F800F8
F800F8
F800F8
FC00F8
7C01F0
7E03F0
3F07E0
1FFFC0
0FFF80
07FF00
01FC00
ENDCHAR
STARTCHAR 0031
ENCODING 49
SWIDTH 562 0
DWIDTH 25 0
BBX 10 33 6 0
BITMAP
FFC0
FFC0
FFC0
FFC0
07C0
07C0
07C0
07C0
07C0
07C0
07C0
07C0
07C0
07C0
07C0
07C0
07C0
07C0
07C0
07C0
07C0
07C0
07C0
07C0
07C0
07C0
07C0
07C0
07C0
07C0
07C0
07C0
07C0
ENDCHAR
STARTCHAR 0032
ENCODING 50
SWIDTH 562 0
DWIDTH 25 0
BBX 21 34 2 0
BITMAP
01FC00
07FF00
0FFF80
1FFFC0
3F07E0
7E03F0
7C01F0
7C01F8
F800F8
F800F8
F800F8
F800F8
0000F8
0001F8
0001F0
0003F0
0007E0
000FE0
001FC0
003F80
007F00
00FE00
01FC00
03F800
07F000
0FE000
1FC000
3F8000
3F0000
7E0000
FFFFF8
FFFFF8
FFFFF8
FFFFF8
ENDCHAR
STARTCHAR 0033
ENCODING 51
SWIDTH 562 0
DWIDTH 25 0
BBX 22 35 1 -1
BITMAP
00FC00
03FF00
07FF80
0FFFC0
1F87E0
1F03E0
3E03F0
3E01F0
3E01F0
0001F0
0001F0
0003F0
0003E0
0007E0
007FC0
007F80
007FC0
007FE0
0007F0
0001F8
0000F8
0000FC
00007C
00007C
00007C
F8007C
F8007C
F800FC
7C00F8
7E01F8
3F07F0
1FFFE0
0FFFC0
07FF80
01FC00
ENDCHAR
STARTCHAR 0034
ENCODING 52
SWIDTH 562 0
DWIDTH 25 0
BBX 23 33 1 0
BITMAP
0001F0
0003F0
0007F0
0007F0
000FF0
000FF0
001FF0
003FF0
003FF0
007DF0
00F9F0
00F9F0
01F1F0
03F1F0
03E1F0
07C1F0
07C1F0
0F81F0
1F81F0
1F01F0
3E01F0
7E01F0
7C01F0
FC01F0
FFFFFE
FFFFFE
FFFFFE
FFFFFE
0001F0
0001F0
0001F0
0001F0
0001F0
ENDCHAR
STARTCHAR 0035
ENCODING 53
SWIDTH 562 0
DWIDTH 25 0
BBX 23 34 1 -1
BITMAP
0FFFF0
0FFFF0
0FFFF0
0FFFF0
0F0000
1F0000
1F0000
1F0000
1E0000
1E0000
1E7E00
1FFFC0
3FFFE0
3FFFF0
3F83F8
3E01F8
3C00FC
04007C
00007E
00003E
00003E
00003E
00003E
F8003E
F8003E
F8007C
7C007C
7E00FC
3F01F8
3F83F8
1FFFF0
0FFFE0
03FF80
00FE00
ENDCHAR
STARTCHAR 0036
ENCODING 54
SWIDTH 562 0
DWIDTH 25 0
BBX 23 34 1 -1
BITMAP
000F80
001F00
003F00
003E00
007C00
00FC00
00F800
01F800
03F000
03E000
07E000
07FF00
0FFFC0
1FFFE0
1FFFF0
3F83F8
3F01FC
7E00FC
7C007E
FC007E
F8003E
F8003E
F8003E
F8003E
F8003E
FC007E
7C007C
7E00FC
3F01F8
3F83F8
1FFFF0
0FFFE0
03FF80
00FE00
ENDCHAR
STARTCHAR 0037
ENCODING 55
SWIDTH 562 0
DWIDTH 25 0
BBX 19 33 3 0
BITMAP
FFFFE0
FFFFE0
FFFFE0
FFFFE0
0003E0
0007C0
0007C0
0007C0
000F80
000F80
001F00
001F00
003E00
003E00
003E00
007C00
007C00
00F800
00F800
01F800
01F000
01F000
03E000
03E000
07C000
07C000
0FC000
0F8000
0F8000
1F0000
1F0000
3E0000
3E0000
ENDCHAR
STARTCHAR 0038
ENCODING 56
SWIDTH 562 0
DWIDTH 25 0
BBX 22 35 2 -1
BITMAP
00FC00
03FF00
07FF80
0FFFC0
1F87E0
1F03E0
3F03F0
3E01F0
3E01F0
3E01F0
3E01F0
3F01F0
1F03E0
1F87E0
0FFFC0
07FF80
0FFFC0
1FFFE0
3F87F0
7E01F8
7C00F8
FC00FC
F8007C
F8007C
F8007C
F8007C
F8007C
FC00F8
7C00F8
7E01F8
3F87F0
1FFFE0
0FFFC0
07FF80
00FC00
ENDCHAR
STARTCHAR 0039
ENCODING 57
SWIDTH 562 0
DWIDTH 25 0
BBX 23 34 1 0
BITMAP
00FE00
03FF80
0FFFE0
1FFFF0
3F83F8
3F01F8
7E00FC
7C007C
FC007E
F8003E
F8003E
F8003E
F8003E
F8003E
FC007E
7C007C
7E00FC
7F01F8
3F83F8
1FFFF0
0FFFF0
07FFE0
00FFC0
000FC0
000F80
001F80
003F00
003E00
007E00
007C00
00F800
01F800
01F000
03E000
ENDCHAR
STARTCHAR 003A
ENCODING 58
SWIDTH 270 0
DWIDTH 12 0
BBX 5 25 4 0
BITMAP
F8
F8
F8
F8
F8
00
00
00
00
00
00
00
00
00
00
00
00
00
00
F8
F8
F8
F8
F8
F8
ENDCHAR
STARTCHAR 003B
ENCODING 59
SWIDTH 270 0
DWIDTH 12 0
BBX 5 31 4 -6
BITMAP
F8
F8
F8
F8
F8
00
00
00
00
00
00
00
00
00
00
00
00
00
00
F8
F8
F8
F8
F8
F8
38
38
78
F0
E0
80
ENDCHAR
STARTCHAR 003C
ENCODING 60
SWIDTH 607 0
DWIDTH 27 0
BBX 23 23 2 0
BITMAP
000006
00001E
00007E
0003FE
000FFE
003FF0
01FFC0
07FF00
1FF800
FFE000
FF8000
FC0000
FF0000
FFE000
3FF800
07FE00
01FFC0
007FF0
000FFC
0003FE
0000FE
00001E
000006
ENDCHAR
STARTCHAR 003D
ENCODING 61
SWIDTH 607 0
DWIDTH 27 0
BBX 22 14 2 4
BITMAP
FFFFFC
FFFFFC
FFFFFC
FFFFFC
000000
000000
000000
000000
000000
000000
FFFFFC
FFFFFC
FFFFFC
FFFFFC
ENDCHAR
STARTCHAR 003E
ENCODING 62
SWIDTH 607 0
DWIDTH 27 0
BBX 23 23 2 1
BITMAP
C00000
F80000
FE0000
FF8000
7FF000
1FFC00
03FF80
00FFE0
003FF8
0007FE
0001FE
0000FE
0003FE
000FFC
007FF0
01FFC0
0FFE00
3FF800
FFE000
FF0000
FC0000
F00000
800000
ENDCHAR
STARTCHAR 003F
ENCODING 63
SWIDTH 517 0
DWIDTH 23 0
BBX 21 33 1 0
BITMAP
01FC00
07FF00
1FFFC0
3FFFE0
7F07F0
7E03F0
FC01F8
F800F8
F800F8
0000F8
0000F8
0000F8
0001F8
0003F0
0007E0
000FE0
001FC0
003F80
003F00
007E00
007C00
00FC00
00F800
00F800
000000
000000
000000
00F800
00F800
00F800
00F800
00F800
00F800
ENDCHAR
STARTCHAR 0040
ENCODING 64
SWIDTH 765 0
DWIDTH 34 0
BBX 34 35 0 -1
BITMAP
0007FC0000
003FFF8000
00FFFFE000
01FC07F800
07E000FC00
0FC0003E00
0F00001F00
1E00000F00
3E00000F80
3C03E00780
7C0FFBC780
781FFF83C0
783E1F83C0
F87C0F83C0
F0780783C0
F0780783C0
F0F00703C0
F0F00703C0
F0F00703C0
F0F0070780
F0F00F0780
F0F00E0700
78781E0F00
787C3F1E00
783FFFFC00
3C1FF7F800
3E0FC3E000
1E00000000
1F00000000
0F80000C00
07E0003C00
03FC01FE00
00FFFFFC00
003FFFE000
0007FE0000
ENDCHAR
STARTCHAR 0041
ENCODING 65
SWIDTH 675 0
DWIDTH 30 0
BBX 29 33 1 0
BITMAP
000F8000
000F8000
001FC000
001FC000
001FC000
003FE000
003DE000
003DE000
007DF000
0078F000
00F8F800
00F8F800
00F07800
01F07C00
01F07C00
01E03C00
03E03E00
03E03E00
07C01F00
07FFFF00
07FFFF00
0FFFFF80
0FFFFF80
0F000F80
1F0007C0
1F0007C0
3E0003E0
3E0003E0
3E0003E0
7C0001F0
7C0001F0
7C0001F0
F80000F8
ENDCHAR
STARTCHAR 0042
ENCODING 66
SWIDTH 585 0
DWIDTH 26 0
BBX 21 33 3 0
BITMAP
FFF800
FFFE00
FFFF00
FFFF80
F87FC0
F80FC0
F807E0
F803E0
F803E0
F803E0
F803E0
F803E0
F807C0
F80FC0
FFFF80
FFFF00
FFFFC0
FFFFE0
F807F0
F803F0
F801F8
F800F8
F800F8
F800F8
F800F8
F800F8
F801F8
F803F0
F83FF0
FFFFE0
FFFFC0
FFFF00
FFFC00
ENDCHAR
STARTCHAR 0043
ENCODING 67
SWIDTH 787 0
DWIDTH 35 0
BBX 32 35 2 -1
BITMAP
0007F800
003FFF00
00FFFFC0
01FFFFF0
03FC0FF8
07F001FC
0FC000FE
1F80007E
3F00003F
3E000000
7E000000
7C000000
7C000000
FC000000
F8000000
F8000000
F8000000
F8000000
F8000000
F8000000
F8000000
7C000000
7C000000
7C000000
7E000000
3F000000
1F00003F
1F80007E
0FC000FE
07F001FC
03FC0FF8
01FFFFF0
00FFFFC0
003FFF00
0007F800
ENDCHAR
STARTCHAR 0044
ENCODING 68
SWIDTH 742 0
DWIDTH 33 0
BBX 28 33 3 0
BITMAP
FFFF0000
FFFFE000
FFFFF800
FFFFFC00
F81FFE00
F800FF00
F8003F80
F8001FC0
F8000FC0
F80007E0
F80007E0
F80003E0
F80003F0
F80001F0
F80001F0
F80001F0
F80001F0
F80001F0
F80001F0
F80001F0
F80001F0
F80003E0
F80003E0
F80007E0
F80007C0
F8000FC0
F8003F80
F800FF00
F81FFF00
FFFFFC00
FFFFF800
FFFFE000
FFFF0000
ENDCHAR
STARTCHAR 0045
ENCODING 69
SWIDTH 517 0
DWIDTH 23 0
BBX 18 33 3 0
BITMAP
FFFFC0
FFFFC0
FFFFC0
FFFFC0
F80000
F80000
F80000
F80000
F80000
F80000
F80000
F80000
F80000
F80000
FFFFC0
FFFFC0
FFFFC0
FFFFC0
F80000
F80000
F80000
F80000
F80000
F80000
F80000
F80000
F80000
F80000
F80000
FFFFC0
FFFFC0
FFFFC0
FFFFC0
ENDCHAR
STARTCHAR 0046
ENCODING 70
SWIDTH 472 0
DWIDTH 21 0
BBX 17 33 3 0
BITMAP
FFFF80
FFFF80
FFFF80
FFFF80
F80000
F80000
F80000
F80000
F80000
F80000
F80000
F80000
F80000
F80000
F80000
FFFF80
FFFF80
FFFF80
FFFF80
F80000
F80000
F80000
F80000
F80000
F80000
F80000
F80000
F80000
F80000
F80000
F80000
F80000
F80000
ENDCHAR
STARTCHAR 0047
ENCODING 71
SWIDTH 832 0
DWIDTH 37 0
BBX 34 35 2 -1
BITMAP
0007F80000
003FFF0000
00FFFFC000
01FFFFE000
03FC0FF000
07F003F800
0FC000FC00
1F80007E00
1F00003E00
3F00000000
3E00000000
7C00000000
7C00000000
7C00000000
F800000000
F800000000
F800000000
F800000000
F807FFFFC0
F807FFFFC0
F807FFFFC0
FC07FFFFC0
7C00000F80
7C00000F80
7E00001F80
3E00001F00
3F00003F00
1F80007E00
0FC000FC00
0FF001FC00
07FC0FF800
01FFFFE000
00FFFFC000
003FFF0000
0007F80000
ENDCHAR
STARTCHAR 0048
ENCODING 72
SWIDTH 675 0
DWIDTH 30 0
BBX 24 33 3 0
BITMAP
F8001F
F8001F
F8001F
F8001F
F8001F
F8001F
F8001F
F8001F
F8001F
F8001F
F8001F
F8001F
F8001F
F8001F
FFFFFF
FFFFFF
FFFFFF
FFFFFF
F8001F
F8001F
F8001F
F8001F
F8001F
F8001F
F8001F
F8001F
F8001F
F8001F
F8001F
F8001F
F8001F
F8001F
F8001F
ENDCHAR
STARTCHAR 0049
ENCODING 73
SWIDTH 247 0
DWIDTH 11 0
BBX 5 33 3 0
BITMAP
F8
F8
F8
F8
F8
F8
F8
F8
F8
F8
F8
F8
F8
F8
F8
F8
F8
F8
F8
F8
F8
F8
F8
F8
F8
F8
F8
F8
F8
F8
F8
F8
F8
ENDCHAR
STARTCHAR 004A
ENCODING 74
SWIDTH 495 0
DWIDTH 22 0
BBX 18 34 0 -1
BITMAP
0007C0
0007C0
0007C0
0007C0
0007C0
0007C0
0007C0
0007C0
0007C0
0007C0
0007C0
0007C0
0007C0
0007C0
0007C0
0007C0
0007C0
0007C0
0007C0
0007C0
0007C0
0007C0
0007C0
0007C0
0007C0
0007C0
0007C0
F807C0
F80F80
FC1F80
7FFF00
3FFE00
1FFC00
03F000
ENDCHAR
STARTCHAR 004B
ENCODING 75
SWIDTH 607 0
DWIDTH 27 0
BBX 23 33 4 0
BITMAP
F8007E
F800FC
F800FC
F801F8
F803F0
F807E0
F807C0
F80FC0
F81F80
F83F00
F83E00
F87C00
F8FC00
F9F800
F9F000
FBE000
FFE000
FBF000
F9F000
F9F800
F8FC00
F87E00
F83E00
F83F00
F81F80
F80FC0
F807C0
F807E0
F803F0
F801F8
F800FC
F800FC
F8007E
ENDCHAR
STARTCHAR 004C
ENCODING 76
SWIDTH 450 0
DWIDTH 20 0
BBX 16 33 4 0
BITMAP
F800
F800
F800
F800
F800
F800
F800
F800
F800
F800
F800
F800
F800
F800
F800
F800
F800
F800
F800
F800
F800
F800
F800
F800
F800
F800
F800
F800
F800
FFFF
FFFF
FFFF
FFFF
ENDCHAR
STARTCHAR 004D
ENCODING 77
SWIDTH 945 0
DWIDTH 42 0
BBX 35 33 3 0
BITMAP
FF00001FE0
FF00001FE0
FF80003FE0
FF80003FE0
FF80003FE0
FFC0007FE0
FBC0007BE0
FBE000FBE0
FBE000FBE0
F9E000F3E0
F9F001F3E0
F8F001E3E0
F8F803E3E0
F8F803E3E0
F87803C3E0
F87C07C3E0
F83C0783E0
F83E0783E0
F83E0F83E0
F81E0F03E0
F81F1F03E0
F80F1E03E0
F80F1E03E0
F80FBE03E0
F807BC03E0
F807FC03E0
F807F803E0
F803F803E0
F803F803E0
F801F003E0
F801F003E0
F801F003E0
F800E003E0
ENDCHAR
STARTCHAR 004E
ENCODING 78
SWIDTH 742 0
DWIDTH 33 0
BBX 27 33 3 0
BITMAP
FC0003E0
FC0003E0
FE0003E0
FF0003E0
FF0003E0
FF8003E0
FFC003E0
FFC003E0
FBE003E0
FBF003E0
F9F003E0
F8F803E0
F8FC03E0
F87C03E0
F83E03E0
F83F03E0
F81F03E0
F80F83E0
F80FC3E0
F807C3E0
F803E3E0
F803F3E0
F801F3E0
F800FBE0
F800FFE0
F8007FE0
F8003FE0
F8003FE0
F8001FE0
F8001FE0
F8000FE0
F80007E0
F80007E0
ENDCHAR
STARTCHAR 004F
ENCODING 79
SWIDTH 855 0
DWIDTH 38 0
BBX 34 35 2 -1
BITMAP
0007F80000
003FFF0000
00FFFFC000
01FFFFE000
03FC0FF800
07E001FC00
0FC000FC00
1F80007E00
3F00003F00
3E00001F00
7E00001F80
7C00000F80
7C00000F80
FC00000FC0
F8000007C0
F8000007C0
F8000007C0
F8000007C0
F8000007C0
F8000007C0
F8000007C0
FC00000FC0
7C00000F80
7C00000F80
7E00001F80
3E00001F00
3F00003F00
1F80007E00
0FC000FC00
07E001F800
03FC0FF000
01FFFFE000
00FFFFC000
003FFF0000
0007F80000
ENDCHAR
STARTCHAR 0050
ENCODING 80
SWIDTH 562 0
DWIDTH 25 0
BBX 21 33 3 0
BITMAP
FFFC00
FFFF00
FFFFC0
FFFFE0
F83FF0
F803F0
F801F8
F801F8
F800F8
F800F8
F800F8
F800F8
F800F8
F801F8
F803F0
F83FF0
FFFFE0
FFFFC0
FFFF00
FFFC00
F80000
F80000
F80000
F80000
F80000
F80000
F80000
F80000
F80000
F80000
F80000
F80000
F80000
ENDCHAR
STARTCHAR 0051
ENCODING 81
SWIDTH 832 0
DWIDTH 37 0
BBX 35 35 2 -1
BITMAP
0007F80000
003FFF0000
00FFFFC000
01FFFFE000
03FC0FF800
07F003F800
0FC000FC00
1F80007E00
3F00003F00
3E00001F00
7E00001F80
7C00000F80
7C00000F80
FC00000FC0
F8000007C0
F8000007C0
F8000007C0
F8000007C0
F8000007C0
F8000007C0
F9FF0007C0
FFFFE00FC0
7FFFF80F80
7FFFFC0F80
7F03FF1F80
3F007FBF00
3F801FFF00
1F800FFE00
0FE007FE00
07F003FC00
03FC0FFF00
01FFFFFFE0
00FFFFFFE0
003FFF0FE0
0007F803E0
ENDCHAR
STARTCHAR 0052
ENCODING 82
SWIDTH 585 0
DWIDTH 26 0
BBX 22 33 3 0
BITMAP
FFFE00
FFFF80
FFFFE0
FFFFF0
F83FF0
F803F8
F801F8
F800FC
F8007C
F8007C
F8007C
F8007C
F8007C
F800FC
F800F8
F801F8
F80FF8
FFFFF0
FFFFE0
FBFF80
F9FE00
F8F800
F8FC00
F87C00
F83E00
F83F00
F81F80
F80FC0
F80FC0
F807E0
F803F0
F801F8
F801F8
ENDCHAR
STARTCHAR 0053
ENCODING 83
SWIDTH 495 0
DWIDTH 22 0
BBX 21 35 1 -1
BITMAP
01FC00
07FF00
0FFF80
1FFFC0
3F07E0
3E03E0
7E03F0
7C01F0
7C01F0
7C0000
7C0000
7E0000
3F0000
3FC000
1FF800
1FFE00
07FF80
03FFC0
00FFE0
001FF0
0007F0
0001F8
0001F8
0000F8
0000F8
F800F8
F800F8
FC00F8
7C01F0
7E03F0
3F07E0
3FFFE0
1FFFC0
07FF00
01FC00
ENDCHAR
STARTCHAR 0054
ENCODING 84
SWIDTH 405 0
DWIDTH 18 0
BBX 17 33 1 0
BITMAP
FFFF80
FFFF80
FFFF80
FFFF80
03E000
03E000
03E000
03E000
03E000
03E000
03E000
03E000
03E000
03E000
03E000
03E000
03E000
03E000
03E000
03E000
03E000
03E000
03E000
03E000
03E000
03E000
03E000
03E000
03E000
03E000
03E000
03E000
03E000
ENDCHAR
STARTCHAR 0055
ENCODING 85
SWIDTH 652 0
DWIDTH 29 0
BBX 22 34 3 -1
BITMAP
F8007C
F8007C
F8007C
F8007C
F8007C
F8007C
F8007C
F8007C
F8007C
F8007C
F8007C
F8007C
F8007C
F8007C
F8007C
F8007C
F8007C
F8007C
F8007C
F8007C
F8007C
F8007C
F8007C
F8007C
F8007C
F8007C
7C00FC
7C00F8
7E01F8
3F87F0
1FFFE0
0FFFC0
07FF80
00FC00
ENDCHAR
STARTCHAR 0056
ENCODING 86
SWIDTH 675 0
DWIDTH 30 0
BBX 29 33 1 0
BITMAP
F80000F8
7C0001F0
7C0001F0
7C0001F0
3E0003E0
3E0003E0
1F0003C0
1F0007C0
1F0007C0
0F800F80
0F800F80
07C00F00
07C01F00
07C01F00
03E03E00
03E03E00
01E03C00
01F07C00
01F07C00
00F87800
00F8F800
0078F800
007DF000
007DF000
003DE000
003FE000
001FE000
001FC000
001FC000
000F8000
000F8000
000F8000
00070000
ENDCHAR
STARTCHAR 0057
ENCODING 87
SWIDTH 900 0
DWIDTH 40 0
BBX 39 33 1 0
BITMAP
F80038003E
F8007C003E
7C007C007C
7C007C007C
7C007C007C
3C00FE0078
3E00FE00F8
3E00FE00F8
3E00FE00F8
1E01FF00F0
1F01EF01F0
1F01EF01F0
1F01EF01F0
0F03EF81E0
0F83C783E0
0F83C783E0
0783C7C3C0
078787C3C0
07C783C7C0
07C783C7C0
03CF83E780
03CF01EF80
03EF01EF80
01EF01EF00
01FF01FF00
01FE00FF00
01FE00FF00
00FE00FE00
00FE00FE00
00FC007E00
007C007C00
007C007C00
007C007C00
ENDCHAR
STARTCHAR 0058
ENCODING 88
SWIDTH 652 0
DWIDTH 29 0
BBX 28 33 0 0
BITMAP
FC0003F0
7E0007E0
3E0007C0
3F000FC0
1F801F80
0F801F00
0FC03F00
07E07E00
03E07C00
03F0FC00
01F9F800
00F9F000
00FFF000
007FE000
003FC000
003FC000
001F8000
003FC000
003FC000
007FE000
00FFF000
00F9F000
01F9F800
03F0FC00
03E07C00
07E07E00
0FC03F00
0F801F00
1F801F80
3F000FC0
3E0007C0
7E0007E0
FC0003F0
ENDCHAR
STARTCHAR 0059
ENCODING 89
SWIDTH 585 0
DWIDTH 26 0
BBX 25 33 1 0
BITMAP
F8000F80
7C001F00
7C001F00
7E003E00
3E003E00
3F007C00
1F007C00
1F80FC00
0F80F800
0FC1F800
07C1F000
07E3F000
03E3E000
03F7E000
01F7C000
01FFC000
00FF8000
00FF8000
007F0000
007F0000
003E0000
003E0000
003E0000
003E0000
003E0000
003E0000
003E0000
003E0000
003E0000
003E0000
003E0000
003E0000
003E0000
ENDCHAR
STARTCHAR 005A
ENCODING 90
SWIDTH 472 0
DWIDTH 21 0
BBX 20 33 0 0
BITMAP
7FFFE0
7FFFE0
7FFFE0
7FFFE0
0003E0
0003E0
0007C0
000FC0
000F80
001F00
001F00
003E00
007E00
007C00
00FC00
00F800
01F000
03F000
03E000
07E000
07C000
0F8000
0F8000
1F0000
3F0000
3E0000
7E0000
7C0000
F80000
FFFFF0
FFFFF0
FFFFF0
FFFFF0
ENDCHAR
STARTCHAR 005B
ENCODING 91
SWIDTH 405 0
DWIDTH 18 0
BBX 9 45 6 -12
BITMAP
0080
0380
0780
0F80
1F80
3F80
3F00
7E00
7C00
FC00
F800
F800
F800
F800
F800
F800
F800
F800
F800
F800
F800
F800
F800
F800
F800
F800
F800
F800
F800
F800
F800
F800
F800
F800
F800
FC00
FC00
7E00
7E00
3F80
3F80
1F80
0F80
0780
0180
ENDCHAR
STARTCHAR 005C
ENCODING 92
SWIDTH 495 0
DWIDTH 22 0
BBX 18 38 2 -5
BITMAP
F80000
7C0000
7C0000
7C0000
3E0000
3E0000
3E0000
1F0000
1F0000
1F0000
0F8000
0F8000
0F8000
07C000
07C000
07C000
03E000
03E000
03E000
01F000
01F000
01F000
00F800
00F800
00FC00
007C00
007C00
007E00
003E00
003E00
003F00
001F00
001F00
001F80
000F80
000F80
000FC0
0007C0
ENDCHAR
STARTCHAR 005D
ENCODING 93
SWIDTH 405 0
DWIDTH 18 0
BBX 9 45 4 -12
BITMAP
8000
E000
F000
F800
FC00
FE00
7E00
3F00
1F00
1F80
0F80
0F80
0F80
0F80
0F80
0F80
0F80
0F80
0F80
0F80
0F80
0F80
0F80
0F80
0F80
0F80
0F80
0F80
0F80
0F80
0F80
0F80
0F80
0F80
0F80
0F80
1F80
1F00
3F00
7E00
FE00
FC00
F800
F000
C000
ENDCHAR
STARTCHAR 005E
ENCODING 94
SWIDTH 607 0
DWIDTH 27 0
BBX 20 17 4 15
BITMAP
01F000
01F000
03F800
03F800
07FC00
07BC00
0FBE00
0F1E00
1F1F00
1E0F00
3E0F80
3E0780
3C07C0
7C03C0
7803E0
F801E0
F001F0
ENDCHAR
STARTCHAR 005F
ENCODING 95
SWIDTH 495 0
DWIDTH 22 0
BBX 22 2 0 -5
BITMAP
FFFFFC
FFFFFC
ENDCHAR
STARTCHAR 0060
ENCODING 96
SWIDTH 562 0
DWIDTH 25 0
BBX 12 8 6 28
BITMAP
7000
7C00
FF00
7F80
1FE0
07F0
01E0
00C0
ENDCHAR
STARTCHAR 0061
ENCODING 97
SWIDTH 697 0
DWIDTH 31 0
BBX 26 26 2 -1
BITMAP
007F07C0
01FFE7C0
07FFF7C0
0FFFFFC0
1FC0FFC0
3F003FC0
3E001FC0
7E001FC0
7C000FC0
7C000FC0
F80007C0
F80007C0
F80007C0
F80007C0
F80007C0
F80007C0
FC000FC0
7C000FC0
7E001FC0
3F001FC0
3F807FC0
1FC0FFC0
0FFFF7C0
07FFF7C0
01FFC7C0
007F0000
ENDCHAR
STARTCHAR 0062
ENCODING 98
SWIDTH 697 0
DWIDTH 31 0
BBX 26 34 3 -1
BITMAP
F8000000
F8000000
F8000000
F8000000
F8000000
F8000000
F8000000
F8000000
F83F8000
F8FFE000
FBFFF800
FFFFFC00
FFC0FE00
FF007F00
FE003F00
FE001F80
FC000F80
FC000FC0
F80007C0
F80007C0
F80007C0
F80007C0
F80007C0
F80007C0
FC000FC0
FC000F80
FE001F80
FE003F00
FF807F00
FFC0FE00
FFFFFC00
FBFFF800
F8FFE000
003F8000
ENDCHAR
STARTCHAR 0063
ENCODING 99
SWIDTH 630 0
DWIDTH 28 0
BBX 25 26 2 -1
BITMAP
007F8000
01FFE000
07FFF800
0FFFFC00
1FC0FE00
3F003F00
3E001F00
7E001F80
7C000F80
7C000000
F8000000
F8000000
F8000000
F8000000
F8000000
F8000000
FC000000
7C000F80
7E001F80
3E001F00
3F003F00
1FC0FE00
0FFFFC00
07FFF800
01FFE000
007F8000
ENDCHAR
STARTCHAR 0064
ENCODING 100
SWIDTH 697 0
DWIDTH 31 0
BBX 26 34 2 -1
BITMAP
000007C0
000007C0
000007C0
000007C0
000007C0
000007C0
000007C0
000007C0
007F07C0
01FFE7C0
07FFF7C0
0FFFFFC0
1FC0FFC0
3F803FC0
3E001FC0
7E001FC0
7C000FC0
7C000FC0
F80007C0
F80007C0
F80007C0
F80007C0
F80007C0
F80007C0
FC000FC0
7C000FC0
7E001FC0
3F001FC0
3F803FC0
1FE0FFC0
0FFFFFC0
07FFF7C0
01FFC7C0
007F0000
ENDCHAR
STARTCHAR 0065
ENCODING 101
SWIDTH 652 0
DWIDTH 29 0
BBX 25 26 2 -1
BITMAP
007F0000
01FFE000
07FFF000
0FFFF800
1FC1FC00
3F007E00
3E003F00
7C001F00
7C001F00
F8000F80
F8000F80
FFFFFF80
FFFFFF80
FFFFFF80
FFFFFF80
F8000000
78000000
7C000000
7E001F00
3E003E00
3F007E00
1FC1FC00
0FFFF800
07FFF000
01FFC000
007F0000
ENDCHAR
STARTCHAR 0066
ENCODING 102
SWIDTH 270 0
DWIDTH 12 0
BBX 11 33 1 0
BITMAP
01E0
07E0
0FE0
1FE0
3F80
3E00
3E00
3E00
FFE0
FFE0
FFE0
FFE0
3E00
3E00
3E00
3E00
3E00
3E00
3E00
3E00
3E00
3E00
3E00
3E00
3E00
3E00
3E00
3E00
3E00
3E00
3E00
3E00
3E00
ENDCHAR
STARTCHAR 0067
ENCODING 103
SWIDTH 697 0
DWIDTH 31 0
BBX 26 35 2 -10
BITMAP
007F07C0
01FFE7C0
07FFF7C0
0FFFFFC0
1FC0FFC0
3F803FC0
3E001FC0
7E001FC0
7C000FC0
7C000FC0
F80007C0
F80007C0
F80007C0
F80007C0
F80007C0
F80007C0
7C000FC0
7C000FC0
7E001FC0
3F001FC0
1F807FC0
1FC0FFC0
0FFFFFC0
07FFF7C0
01FFE7C0
007F07C0
00000F80
7C000F80
3E001F80
3F003F00
1FC0FE00
0FFFFE00
07FFF800
01FFF000
007F8000
ENDCHAR
STARTCHAR 0068
ENCODING 104
SWIDTH 630 0
DWIDTH 28 0
BBX 22 33 3 0
BITMAP
F80000
F80000
F80000
F80000
F80000
F80000
F80000
F80000
F87E00
F9FFC0
FBFFE0
FFFFF0
FF83F8
FE01F8
FC00FC
FC00FC
F8007C
F8007C
F8007C
F8007C
F8007C
F8007C
F8007C
F8007C
F8007C
F8007C
F8007C
F8007C
F8007C
F8007C
F8007C
F8007C
F8007C
ENDCHAR
STARTCHAR 0069
ENCODING 105
SWIDTH 247 0
DWIDTH 11 0
BBX 5 33 3 0
BITMAP
F8
F8
F8
F8
F8
F8
00
00
F8
F8
F8
F8
F8
F8
F8
F8
F8
F8
F8
F8
F8
F8
F8
F8
F8
F8
F8
F8
F8
F8
F8
F8
F8
ENDCHAR
STARTCHAR 006A
ENCODING 106
SWIDTH 247 0
DWIDTH 11 0
BBX 8 43 1 -10
BITMAP
1F
1F
1F
1F
1F
1F
00
00
1F
1F
1F
1F
1F
1F
1F
1F
1F
1F
1F
1F
1F
1F
1F
1F
1F
1F
1F
1F
1F
1F
1F
1F
1F
1F
1F
1F
1F
3F
FE
FC
F8
F0
C0
ENDCHAR
STARTCHAR 006B
ENCODING 107
SWIDTH 540 0
DWIDTH 24 0
BBX 20 33 3 0
BITMAP
F80000
F80000
F80000
F80000
F80000
F80000
F80000
F80000
F807E0
F807C0
F80F80
F81F80
F81F00
F83E00
F87C00
F8FC00
F8F800
F9F000
FBE000
FFE000
FFE000
FBF000
F9F800
F8F800
F8FC00
F87E00
F83F00
F81F00
F80F80
F80FC0
F807E0
F803F0
F801F0
ENDCHAR
STARTCHAR 006C
ENCODING 108
SWIDTH 247 0
DWIDTH 11 0
BBX 5 33 3 0
BITMAP
F8
F8
F8
F8
F8
F8
F8
F8
F8
F8
F8
F8
F8
F8
F8
F8
F8
F8
F8
F8
F8
F8
F8
F8
F8
F8
F8
F8
F8
F8
F8
F8
F8
ENDCHAR
STARTCHAR 006D
ENCODING 109
SWIDTH 967 0
DWIDTH 43 0
BBX 38 25 3 0
BITMAP
F8FE00FE00
FBFF87FFC0
FFFFCFFFE0
FFFFFFFFF0
FF07FF03F8
FE03FE01F8
FC01FC00FC
FC00FC007C
F800F8007C
F800F8007C
F800F8007C
F800F8007C
F800F8007C
F800F8007C
F800F8007C
F800F8007C
F800F8007C
F800F8007C
F800F8007C
F800F8007C
F800F8007C
F800F8007C
F800F8007C
F800F8007C
F800F8007C
ENDCHAR
STARTCHAR 006E
ENCODING 110
SWIDTH 630 0
DWIDTH 28 0
BBX 22 25 3 0
BITMAP
F87E00
F9FFC0
FFFFE0
FFFFF0
FF83F8
FE01F8
FC00FC
FC00FC
F8007C
F8007C
F8007C
F8007C
F8007C
F8007C
F8007C
F8007C
F8007C
F8007C
F8007C
F8007C
F8007C
F8007C
F8007C
F8007C
F8007C
ENDCHAR
STARTCHAR 006F
ENCODING 111
SWIDTH 675 0
DWIDTH 30 0
BBX 27 26 2 -1
BITMAP
003F8000
01FFF000
03FFFC00
0FFFFE00
1FE0FF00
1F803F80
3F001F80
7E000FC0
7C0007C0
7C0007E0
F80003E0
F80003E0
F80003E0
F80003E0
F80003E0
F80003E0
7C0007C0
7C0007C0
7E000FC0
3F001F80
1F803F00
1FE0FF00
0FFFFE00
03FFF800
01FFF000
003F8000
ENDCHAR
STARTCHAR 0070
ENCODING 112
SWIDTH 675 0
DWIDTH 30 0
BBX 26 33 3 -8
BITMAP
F83F8000
F8FFF000
F9FFF800
FBFFFC00
FFC1FE00
FF007F00
FE003F00
FE001F80
FC000F80
FC000FC0
F80007C0
F80007C0
F80007C0
F80007C0
F80007C0
F80007C0
FC000FC0
FC000F80
FE001F80
FE001F00
FF803F00
FFC0FE00
FFFFFC00
FBFFF800
F8FFE000
F83F8000
F8000000
F8000000
F8000000
F8000000
F8000000
F8000000
F8000000
ENDCHAR
STARTCHAR 0071
ENCODING 113
SWIDTH 697 0
DWIDTH 31 0
BBX 26 33 2 -8
BITMAP
007F07C0
01FFE7C0
07FFF7C0
0FFFFFC0
1FC0FFC0
3F803FC0
3E001FC0
7E001FC0
7C000FC0
7C000FC0
F80007C0
F80007C0
F80007C0
F80007C0
F80007C0
F80007C0
FC000FC0
7C000FC0
7E001FC0
3F001FC0
3F803FC0
1FE0FFC0
0FFFFFC0
07FFF7C0
01FFC7C0
007F07C0
000007C0
000007C0
000007C0
000007C0
000007C0
000007C0
000007C0
ENDCHAR
STARTCHAR 0072
ENCODING 114
SWIDTH 315 0
DWIDTH 14 0
BBX 11 25 3 0
BITMAP
F8E0
FBE0
FFE0
FFE0
FF80
FE00
FC00
FC00
F800
F800
F800
F800
F800
F800
F800
F800
F800
F800
F800
F800
F800
F800
F800
F800
F800
ENDCHAR
STARTCHAR 0073
ENCODING 115
SWIDTH 427 0
DWIDTH 19 0
BBX 18 26 1 -1
BITMAP
03F000
0FFC00
1FFE00
3FFF00
3E1F80
7C0F80
7C0F80
7C0000
7E0000
7F8000
3FF000
1FFC00
0FFE00
07FF00
00FF80
001FC0
000FC0
F807C0
F807C0
F807C0
7C0FC0
7E1F80
3FFF80
3FFF00
0FFE00
03F000
ENDCHAR
STARTCHAR 0074
ENCODING 116
SWIDTH 270 0
DWIDTH 12 0
BBX 12 33 1 0
BITMAP
1F00
1F00
1F00
1F00
1F00
1F00
1F00
1F00
FFF0
FFF0
FFF0
FFF0
1F00
1F00
1F00
1F00
1F00
1F00
1F00
1F00
1F00
1F00
1F00
1F00
1F00
1F00
1F00
1F00
1F00
1F00
1F00
1F00
1F00
ENDCHAR
STARTCHAR 0075
ENCODING 117
SWIDTH 630 0
DWIDTH 28 0
BBX 22 26 3 -1
BITMAP
F8007C
F8007C
F8007C
F8007C
F8007C
F8007C
F8007C
F8007C
F8007C
F8007C
F8007C
F8007C
F8007C
F8007C
F8007C
F8007C
F8007C
F8007C
FC00FC
7C00FC
7E01FC
3F07FC
3FFFFC
1FFFFC
07FE7C
01F800
ENDCHAR
STARTCHAR 0076
ENCODING 118
SWIDTH 540 0
DWIDTH 24 0
BBX 23 25 1 0
BITMAP
F8003E
7C007C
7C007C
7C007C
3E00F8
3E00F8
1E00F0
1F01F0
1F01F0
0F01E0
0F83E0
0783C0
07C3C0
07C7C0
03C780
03EF80
01EF80
01EF00
01FF00
00FE00
00FE00
007E00
007C00
007C00
003800
ENDCHAR
STARTCHAR 0077
ENCODING 119
SWIDTH 787 0
DWIDTH 35 0
BBX 34 25 1 0
BITMAP
F801E007C0
7801E00780
7C01E00F80
7C03F00F80
3C03F00F00
3E03F01F00
3E07F81F00
1E07F81E00
1F07F83E00
1F07FC3E00
0F0F3C3C00
0F8F3C7C00
078F3C7800
079E1E7800
07DE1EF800
03DE1EF000
03FC0FF000
03FC0FF000
01FC0FE000
01F807E000
01F807E000
00F807C000
00F003C000
0070038000
0070038000
ENDCHAR
STARTCHAR 0078
ENCODING 120
SWIDTH 517 0
DWIDTH 23 0
BBX 23 25 0 0
BITMAP
7C00FC
7E00F8
3F01F8
1F01F0
1F83E0
0FC7E0
07C7C0
07EF80
03FF80
01FF00
01FE00
00FE00
00FE00
00FE00
01FF00
03FF80
03EF80
07CFC0
0FC7E0
0F83E0
1F03F0
3F01F8
3E00F8
7C00FC
FC007E
ENDCHAR
STARTCHAR 0079
ENCODING 121
SWIDTH 585 0
DWIDTH 26 0
BBX 25 33 0 -8
BITMAP
F8000F80
7C001F00
7C001F00
7C001F00
3E003E00
3E003E00
1F007C00
1F007C00
1F007800
0F80F800
0F80F800
0781F000
07C1F000
03C1E000
03E3E000
03E3E000
01E7C000
01F7C000
00F78000
00FF8000
00FF0000
007F0000
007F0000
003E0000
003E0000
007C0000
007C0000
00780000
00F80000
00F80000
01F00000
01F00000
01E00000
ENDCHAR
STARTCHAR 007A
ENCODING 122
SWIDTH 405 0
DWIDTH 18 0
BBX 18 25 0 0
BITMAP
7FFF80
7FFF80
7FFF80
7FFF80
000F80
001F00
003F00
003E00
007C00
00FC00
00F800
01F000
03F000
03E000
07C000
0F8000
1F8000
1F0000
3E0000
7E0000
7C0000
FFFFC0
FFFFC0
FFFFC0
FFFFC0
ENDCHAR
STARTCHAR 007B
ENCODING 123
SWIDTH 337 0
DWIDTH 15 0
BBX 13 42 1 -9
BITMAP
00F8
03F8
07F8
07F8
0FC0
0F80
0F80
0F80
0F80
0F80
0F80
0F80
0F80
0F80
0F80
0F80
0F80
1F80
3F00
FF00
FC00
FE00
FF00
3F80
1F80
0F80
0F80
0F80
0F80
0F80
0F80
0F80
0F80
0F80
0F80
0F80
0F80
0FC0
07F8
07F8
03F8
00F8
ENDCHAR
STARTCHAR 007C
ENCODING 124
SWIDTH 562 0
DWIDTH 25 0
BBX 5 38 10 -5
BITMAP
F8
F8
F8
F8
F8
F8
F8
F8
F8
F8
F8
F8
F8
F8
F8
F8
F8
F8
F8
F8
F8
F8
F8
F8
F8
F8
F8
F8
F8
F8
F8
F8
F8
F8
F8
F8
F8
F8
ENDCHAR
STARTCHAR 007D
ENCODING 125
SWIDTH 337 0
DWIDTH 15 0
BBX 14 42 1 -9
BITMAP
F800
FE00
FF00
FF80
1F80
0F80
0F80
0F80
0F80
0F80
0F80
0F80
0F80
0F80
0F80
0F80
0F80
0FC0
07F0
07FC
01FC
01FC
03FC
07F0
0FC0
0F80
0F80
0F80
0F80
0F80
0F80
0F80
0F80
0F80
0F80
0F80
0F80
1F80
FF00
FF00
FE00
F800
ENDCHAR
STARTCHAR 007E
ENCODING 126
SWIDTH 607 0
DWIDTH 27 0
BBX 20 8 3 8
BITMAP
1F0000
3FC030
7FF070
7FFFF0
FFFFF0
F0FFE0
603FE0
400F80
ENDCHAR
STARTCHAR 00A1
ENCODING 161
SWIDTH 270 0
DWIDTH 12 0
BBX 5 33 4 -8
BITMAP
F8
F8
F8
F8
F8
00
00
00
F8
F8
F8
F8
F8
F8
F8
F8
F8
F8
F8
F8
F8
F8
F8
F8
F8
F8
F8
F8
F8
F8
F8
F8
F8
ENDCHAR
STARTCHAR 00A2
ENCODING 162
SWIDTH 562 0
DWIDTH 25 0
BBX 22 30 2 3
BITMAP
007C00
007C00
007C00
007C00
00FE00
03FFC0
0FFFE0
1FFFF0
3FFFF8
7F01F8
7E00FC
7C0000
FC0000
F80000
F80000
F80000
F80000
FC0000
7C0000
7E00FC
3F81F8
3FFFF8
1FFFF0
0FFFC0
03FF80
007C00
007C00
007C00
007C00
007C00
ENDCHAR
STARTCHAR 00A3
ENCODING 163
SWIDTH 562 0
DWIDTH 25 0
BBX 25 34 0 0
BITMAP
007F0000
03FFC000
07FFF000
0FFFF800
1FC1FC00
3F00FC00
3E007E00
3E003E00
7C003E00
7C000000
7C000000
7C000000
7C000000
7E000000
3E000000
FFFFC000
FFFFC000
FFFFC000
FFFFC000
03F00000
01F80000
00F80000
00FC0F80
007C0F80
007C0F80
007C0F80
007C0F80
007C1F00
007C3F00
00F87F00
3FFFFE00
3FFFFC00
3FFFF800
3FFFC000
ENDCHAR
STARTCHAR 00A4
ENCODING 164
SWIDTH 562 0
DWIDTH 25 0
BBX 22 23 2 3
BITMAP
200010
700038
F8FC7C
FFFFFC
7FFFF8
3FFFF0
1F87F0
3F03F0
3E01F8
7C00F8
7C00F8
7C00F8
7C00F8
7C00F8
3E01F8
3F03F0
1F87F0
3FFFF0
7FFFF8
FFFFFC
F8FC7C
700038
200010
ENDCHAR
STARTCHAR 00A5
ENCODING 165
SWIDTH 562 0
DWIDTH 25 0
BBX 25 33 0 0
BITMAP
F8000F80
7C001F00
7C001F00
3E003E00
1F007C00
1F007C00
0F80F800
0F80F800
07C1F000
07C1F000
03E3E000
7FF7FF00
7FF7FF00
7FFFFF00
7FFFFF00
007F0000
007F0000
003E0000
003E0000
003E0000
7FFFFF00
7FFFFF00
7FFFFF00
7FFFFF00
003E0000
003E0000
003E0000
003E0000
003E0000
003E0000
003E0000
003E0000
003E0000
ENDCHAR
STARTCHAR 00A6
ENCODING 166
SWIDTH 562 0
DWIDTH 25 0
BBX 5 38 10 -5
BITMAP
F8
F8
F8
F8
F8
F8
F8
F8
F8
F8
F8
F8
F8
F8
F8
00
00
00
00
00
00
00
00
F8
F8
F8
F8
F8
F8
F8
F8
F8
F8
F8
F8
F8
F8
F8
ENDCHAR
STARTCHAR 00A7
ENCODING 167
SWIDTH 562 0
DWIDTH 25 0
BBX 23 44 2 -10
BITMAP
00FE00
03FF80
07FFC0
0FFFE0
0FC7F0
1F81F0
1F01F8
1F01F8
1F0000
1F8000
0FC000
0FE000
07F800
1FFE00
3FFF80
7E7FE0
7C3FF0
F80FF8
F803FC
F800FE
F8007E
FC003E
7E003E
7F803E
3FC03E
1FF07C
0FFCFC
03FFF8
00FFE0
003FC0
000FE0
0007F0
0001F8
0000F8
0000F8
7C00F8
7C00F8
7E00F8
3E01F0
3F83F0
1FFFE0
0FFFC0
07FF80
00FE00
ENDCHAR
STARTCHAR 00A8
ENCODING 168
SWIDTH 562 0
DWIDTH 25 0
BBX 11 6 7 29
BITMAP
FBE0
FBE0
FBE0
FBE0
FBE0
FBE0
ENDCHAR
STARTCHAR 00A9
ENCODING 169
SWIDTH 810 0
DWIDTH 36 0
BBX 34 35 1 -1
BITMAP
000FF00000
003FFF0000
00FFFFC000
03FC0FE000
07E001F000
0FC000F800
0F00003C00
1E07F03E00
3E1FFC1F00
3C3FFE0F00
7C7C1F0F80
78F00F8780
78E0078780
F0E00383C0
F1C00003C0
F1C00003C0
F1C00003C0
F1C00003C0
F1C00003C0
F1C00003C0
F1E00003C0
78E0038780
78F0078780
78700F0780
7C7C1F0F00
3C3FFE0F00
3E1FFC1E00
1E07E03E00
0F00007C00
0F8000F800
07E003F000
01F80FE000
00FFFF8000
003FFE0000
000FF00000
ENDCHAR
STARTCHAR 00AA
ENCODING 170
SWIDTH 382 0
DWIDTH 17 0
BBX 15 15 1 19
BITMAP
0780
1FFE
3FFE
7C7E
783E
F01E
F01E
F01E
F01E
F01E
783E
7C7E
3FFE
1FFE
0780
ENDCHAR
STARTCHAR 00AB
ENCODING 171
SWIDTH 360 0
DWIDTH 16 0
BBX 14 16 1 6
BITMAP
0404
0C0C
1C1C
3C3C
7C7C
F8F8
F0F0
E0E0
F0F0
F8F8
7C7C
3C3C
1C1C
0C0C
0404
0404
ENDCHAR
STARTCHAR 00AC
ENCODING 172
SWIDTH 607 0
DWIDTH 27 0
BBX 23 13 2 4
BITMAP
FFFFFE
FFFFFE
FFFFFE
FFFFFE
00003E
00003E
00003E
00003E
00003E
00003E
00003E
00003E
00003E
ENDCHAR
STARTCHAR 00AE
ENCODING 174
SWIDTH 810 0
DWIDTH 36 0
BBX 34 35 1 -1
BITMAP
0007F80000
003FFF0000
00FFFFC000
01FC0FE000
03E001F800
07C000FC00
0F00003C00
1E00001E00
3E3FF81F00
3C3FFE0F00
783FFE0780
78380F0780
7838070780
F0380703C0
F0380703C0
F0380E03C0
F03FFE03C0
F03FF803C0
F03FFE03C0
F0380F03C0
F0380703C0
7838070780
7838070780
7838070780
3C38070F00
3C38070F00
1E38071E00
1F38073E00
0F80007C00
07C000F800
03E001F000
01FC0FE000
00FFFFC000
003FFF0000
0007F80000
ENDCHAR
STARTCHAR 00AF
ENCODING 175
SWIDTH 562 0
DWIDTH 25 0
BBX 16 3 4 30
BITMAP
FFFF
FFFF
FFFF
ENDCHAR
STARTCHAR 00B0
ENCODING 176
SWIDTH 405 0
DWIDTH 18 0
BBX 13 13 2 19
BITMAP
0F80
3FE0
3FF0
7870
F038
E038
E038
E038
F038
78F0
3FF0
1FE0
0780
ENDCHAR
STARTCHAR 00B1
ENCODING 177
SWIDTH 607 0
DWIDTH 27 0
BBX 23 26 2 -1
BITMAP
007C00
007C00
007C00
007C00
007C00
007C00
007C00
FFFFFE
FFFFFE
FFFFFE
FFFFFE
007C00
007C00
007C00
007C00
007C00
007C00
007C00
007C00
000000
000000
000000
FFFFFE
FFFFFE
FFFFFE
FFFFFE
ENDCHAR
STARTCHAR 00B2
ENCODING 178
SWIDTH 360 0
DWIDTH 16 0
BBX 14 20 1 13
BITMAP
0FC0
3FF0
7FF8
7878
F03C
F03C
F03C
003C
007C
00F8
01F0
03E0
07C0
0F80
1F00
3E00
7C00
FFFC
FFFC
FFFC
ENDCHAR
STARTCHAR 00B3
ENCODING 179
SWIDTH 360 0
DWIDTH 16 0
BBX 14 20 1 13
BITMAP
07C0
1FE0
3FF0
7CF8
7878
0078
00F8
03F0
03E0
03F0
00F8
007C
003C
003C
F03C
F03C
7878
7FF8
3FE0
0FC0
ENDCHAR
STARTCHAR 00B4
ENCODING 180
SWIDTH 562 0
DWIDTH 25 0
BBX 12 9 7 28
BITMAP
0040
01E0
03E0
0FF0
3FC0
FF00
7E00
7800
2000
ENDCHAR
STARTCHAR 00B5
ENCODING 181
SWIDTH 630 0
DWIDTH 28 0
BBX 22 33 3 -8
BITMAP
F8007C
F8007C
F8007C
F8007C
F8007C
F8007C
F8007C
F8007C
F8007C
F8007C
F8007C
F8007C
F8007C
F8007C
F8007C
F8007C
F8007C
FC00FC
FC00FC
FC01FC
FE01FC
FF87FC
FFFFFC
FFFF7C
FBFE7C
F8FC00
F80000
F80000
F80000
F80000
F80000
F80000
F80000
ENDCHAR
STARTCHAR 00B6
ENCODING 182
SWIDTH 630 0
DWIDTH 28 0
BBX 24 41 0 -9
BITMAP
03FFFF
0FFFFF
1FFFFF
3FFFFF
7FFE1F
7FFE1F
FFFE1F
FFFE1F
FFFE1F
FFFE1F
FFFE1F
7FFE1F
7FFE1F
3FFE1F
1FFE1F
07FE1F
003E1F
003E1F
003E1F
003E1F
003E1F
003E1F
003E1F
003E1F
003E1F
003E1F
003E1F
003E1F
003E1F
003E1F
003E1F
003E1F
003E1F
003E1F
003E1F
003E1F
003E1F
003E1F
003E1F
003E1F
003E1F
ENDCHAR
STARTCHAR 00B7
ENCODING 183
SWIDTH 270 0
DWIDTH 12 0
BBX 5 4 4 9
BITMAP
F8
F8
F8
F8
ENDCHAR
STARTCHAR 00B8
ENCODING 184
SWIDTH 562 0
DWIDTH 25 0
BBX 8 11 8 -11
BITMAP
38
30
30
7E
7F
27
03
03
E7
7E
3C
ENDCHAR
STARTCHAR 00B9
ENCODING 185
SWIDTH 360 0
DWIDTH 16 0
BBX 7 20 4 13
BITMAP
FE
FE
FE
1E
1E
1E
1E
1E
1E
1E
1E
1E
1E
1E
1E
1E
1E
1E
1E
1E
ENDCHAR
STARTCHAR 00BA
ENCODING 186
SWIDTH 382 0
DWIDTH 17 0
BBX 15 15 1 19
BITMAP
07C0
1FF0
3FF8
7C7C
783C
F01E
F01E
F01E
F01E
F01E
783C
7C7C
3FF8
1FF0
07C0
ENDCHAR
STARTCHAR 00BB
ENCODING 187
SWIDTH 360 0
DWIDTH 16 0
BBX 14 16 1 6
BITMAP
8080
C0C0
E0E0
F0F0
F8F8
7C7C
3C3C
1C1C
3C3C
7C7C
F8F8
F0F0
E0E0
C0C0
8080
8080
ENDCHAR
STARTCHAR 00BC
ENCODING 188
SWIDTH 697 0
DWIDTH 31 0
BBX 30 33 0 0
BITMAP
FE000E00
FE000E00
FE001C00
1E001C00
1E003C00
1E003800
1E007800
1E007000
1E007000
1E00E000
1E00E000
1E01C000
1E01C000
1E03C070
1E0380F0
1E0780F0
1E0701F0
1E0F03F0
1E0E03F0
1E0E0770
001C0F70
001C0E70
003C1C70
00383C70
00787870
00707070
00F0F070
00E0FFFC
01E0FFFC
01C0FFFC
01C00070
03C00070
03800070
ENDCHAR
STARTCHAR 00BD
ENCODING 189
SWIDTH 720 0
DWIDTH 32 0
BBX 31 33 0 0
BITMAP
FE001E00
FE001C00
FE003C00
1E003800
1E007800
1E007000
1E00F000
1E00E000
1E00E000
1E01E000
1E01C000
1E03C000
1E038000
1E0783E0
1E070FF8
1E0F1FFC
1E0E1E3C
1E1E3C1E
1E1C3C1E
1E3C3C1E
0038001E
0038003E
0078003C
0070007C
00F000F8
00E001F0
01E003E0
01C007C0
03C00F80
03801F00
07803FFE
07003FFE
0F003FFE
ENDCHAR
STARTCHAR 00BE
ENCODING 190
SWIDTH 787 0
DWIDTH 35 0
BBX 33 33 1 0
BITMAP
07C001C000
1FE001C000
3FF003C000
7CF8038000
7878078000
0078070000
00F8070000
03F00E0000
03E00E0000
03F01C0000
00F81C0000
007C3C0000
003C380000
003C780E00
F03C701E00
F03C703E00
7878E03E00
7FF8E07E00
3FE1E07E00
0FC1C0EE00
0003C1EE00
000381CE00
0007838E00
0007078E00
000F070E00
000F0F0E00
000E1E0E00
001E1FFF80
001C1FFF80
003C1FFF80
0038000E00
0078000E00
0070000E00
ENDCHAR
STARTCHAR 00BF
ENCODING 191
SWIDTH 517 0
DWIDTH 23 0
BBX 20 34 2 -9
BITMAP
00F800
00F800
00F800
00F800
00F800
000000
000000
000000
00F800
00F800
00F800
01F800
01F000
03F000
03F000
07E000
0FC000
1F8000
3F8000
7F0000
7E0000
FC0000
F80000
F80000
F800F0
F800F0
F801F0
7C01F0
7E03E0
3F07E0
3FFFC0
1FFF80
07FF00
01F800
ENDCHAR
STARTCHAR 00C0
ENCODING 192
SWIDTH 675 0
DWIDTH 30 0
BBX 29 43 1 1
BITMAP
00700000
00780000
00FE0000
007F8000
001FE000
000FE000
0003E000
0000C000
00004000
00000000
000F8000
000F8000
001FC000
001FC000
001FC000
003FE000
003DE000
003DE000
007DF000
0078F000
00F8F800
00F8F800
00F07800
01F07C00
01F07C00
01E03C00
03E03E00
03E03E00
07C01F00
07FFFF00
07FFFF00
0FFFFF80
0FFFFF80
0F800F80
1F0007C0
1F0007C0
3F0003E0
3E0003E0
3E0003E0
7C0001F0
7C0001F0
7C0001F0
F80000F8
ENDCHAR
STARTCHAR 00C1
ENCODING 193
SWIDTH 675 0
DWIDTH 30 0
BBX 29 44 1 0
BITMAP
00002000
00007000
0001F000
0007F800
001FE000
003FC000
003F0000
003C0000
00100000
00000000
00000000
000F8000
000F8000
001F8000
001FC000
001FC000
003FE000
003DE000
003DE000
007DF000
0079F000
00F8F000
00F8F800
00F0F800
01F07C00
01F07C00
01E07C00
03E03E00
03E03E00
07C03F00
07FFFF00
07FFFF00
0FFFFF80
0FFFFF80
0F000F80
1F0007C0
1F0007C0
3E0007E0
3E0003E0
3E0003E0
7C0003F0
7C0001F0
7C0001F0
F80000F8
ENDCHAR
STARTCHAR 00C2
ENCODING 194
SWIDTH 675 0
DWIDTH 30 0
BBX 29 42 1 0
BITMAP
000F8000
001FC000
003FE000
007DF000
00F8F800
03F07C00
00000000
00000000
00000000
000F8000
000F8000
001FC000
001FC000
001FC000
003FE000
003DE000
003DF000
007DF000
0078F000
00F8F800
00F8F800
00F07800
01F07C00
01F07C00
01E03E00
03E03E00
03E03E00
07C01F00
07FFFF00
07FFFF00
0FFFFF80
0FFFFF80
0F000780
1F0007C0
1F0007C0
3E0003E0
3E0003E0
3E0003E0
7C0001F0
7C0001F0
780000F0
F80000F8
ENDCHAR
STARTCHAR 00C3
ENCODING 195
SWIDTH 675 0
DWIDTH 30 0
BBX 29 41 1 0
BITMAP
00781800
01FFF800
01FFFC00
01FFF800
0083F000
00000000
00000000
00000000
000F8000
000F8000
001F8000
001FC000
001FC000
003FC000
003FE000
007DE000
007DF000
0079F000
00F8F000
00F8F800
00F0F800
01F07C00
01F07C00
01E07C00
03E03E00
03E03E00
07C03E00
07FFFF00
07FFFF00
0FFFFF80
0FFFFF80
0F000F80
1F000FC0
1F0007C0
3E0007E0
3E0007E0
3E0003E0
7C0003F0
7C0001F0
7C0001F0
F80001F8
ENDCHAR
STARTCHAR 00C4
ENCODING 196
SWIDTH 675 0
DWIDTH 30 0
BBX 29 42 1 0
BITMAP
007CF800
007CF800
007CF800
007CF800
007CF800
007CF800
00000000
00000000
00000000
00078000
000FC000
000FC000
001FC000
001FE000
001FE000
003FE000
003FF000
007CF000
007CF800
0078F800
00F87800
00F87C00
00F07C00
01F03C00
01F03E00
03E03E00
03E01E00
03C01F00
07FFFF00
07FFFF80
0FFFFF80
0FFFFF80
0F8007C0
1F0003C0
1F0003C0
1F0003E0
3E0001E0
3E0001E0
7C0001F0
7C0000F0
7C0000F0
F80000F8
ENDCHAR
STARTCHAR 00C5
ENCODING 197
SWIDTH 675 0
DWIDTH 30 0
BBX 29 45 1 0
BITMAP
00078000
000FC000
001FE000
003CF000
00387000
00387000
00387000
003CE000
001FE000
000FC000
00070000
00000000
00078000
000F8000
000FC000
000FC000
001FE000
001FE000
003FE000
003DF000
003CF000
007CF000
0078F800
00F87800
00F87800
00F07C00
01F03C00
01F03E00
03E03E00
03E01E00
03C01F00
07FFFF00
07FFFF00
07FFFF80
0FFFFF80
0F8007C0
1F0007C0
1F0003C0
1F0003E0
3E0003E0
3E0001E0
7E0001F0
7C0001F0
7C0000F0
F80000F8
ENDCHAR
STARTCHAR 00C6
ENCODING 198
SWIDTH 922 0
DWIDTH 41 0
BBX 38 33 0 0
BITMAP
000007FFFC
000007FFFC
00000FFFFC
00001FFFFC
00001FE000
00003FE000
00007FE000
00007FE000
0000FBE000
0001F3E000
0001F3E000
0003E3E000
0007E3E000
0007C3E000
000FC3FFFC
001F83FFFC
001F03FFFC
003F03FFFC
007E03E000
007E03E000
00FFFFE000
01FFFFE000
01FFFFE000
03FFFFE000
07E003E000
07C003E000
0F8003E000
1F8003E000
1F0003E000
3E0003FFFC
7E0003FFFC
7C0003FFFC
F80003FFFC
ENDCHAR
STARTCHAR 00C7
ENCODING 199
SWIDTH 787 0
DWIDTH 35 0
BBX 31 45 2 -12
BITMAP
0007F800
003FFF00
00FFFFC0
01FFFFE0
03FC0FF0
07E003F8
0FC001FC
1F80007E
3F00007E
3E000000
7E000000
7C000000
7C000000
FC000000
F8000000
F8000000
F8000000
F8000000
F8000000
F8000000
F8000000
FC000000
7C000000
7C000000
7E000000
3E000000
3F00007E
1F8000FE
0FC001FC
07F003F8
03FC0FF0
01FFFFE0
00FFFF80
003FFF00
0007F800
00030000
00030000
0007C000
0007E000
00027000
00003000
00003000
000E7000
0007E000
0003C000
ENDCHAR
STARTCHAR 00C8
ENCODING 200
SWIDTH 517 0
DWIDTH 23 0
BBX 18 44 3 0
BITMAP
080000
1C0000
1F0000
3FC000
0FF000
07FC00
01FC00
007800
001000
000000
000000
FFFFC0
FFFFC0
FFFFC0
FFFFC0
F80000
F80000
F80000
F80000
F80000
F80000
F80000
F80000
F80000
F80000
FFFFC0
FFFFC0
FFFFC0
FFFFC0
F80000
F80000
F80000
F80000
F80000
F80000
F80000
F80000
F80000
F80000
F80000
FFFFC0
FFFFC0
FFFFC0
FFFFC0
ENDCHAR
STARTCHAR 00C9
ENCODING 201
SWIDTH 517 0
DWIDTH 23 0
BBX 18 44 3 0
BITMAP
000400
001E00
003E00
00FF00
03FC00
0FF000
0FC000
078000
060000
000000
000000
FFFFC0
FFFFC0
FFFFC0
FFFFC0
F80000
F80000
F80000
F80000
F80000
F80000
F80000
F80000
F80000
F80000
FFFFC0
FFFFC0
FFFFC0
FFFFC0
F80000
F80000
F80000
F80000
F80000
F80000
F80000
F80000
F80000
F80000
F80000
FFFFC0
FFFFC0
FFFFC0
FFFFC0
ENDCHAR
STARTCHAR 00CA
ENCODING 202
SWIDTH 517 0
DWIDTH 23 0
BBX 18 42 3 0
BITMAP
03E000
07F000
0FF800
1F7C00
3E3F00
7C1F80
000000
000000
000000
FFFFC0
FFFFC0
FFFFC0
FFFFC0
F80000
F80000
F80000
F80000
F80000
F80000
F80000
F80000
F80000
F80000
FFFFC0
FFFFC0
FFFFC0
FFFFC0
F80000
F80000
F80000
F80000
F80000
F80000
F80000
F80000
F80000
F80000
F80000
FFFFC0
FFFFC0
FFFFC0
FFFFC0
ENDCHAR
STARTCHAR 00CB
ENCODING 203
SWIDTH 517 0
DWIDTH 23 0
BBX 18 42 3 0
BITMAP
1F3E00
1F3E00
1F3E00
1F3E00
1F3E00
1F3E00
000000
000000
000000
FFFFC0
FFFFC0
FFFFC0
FFFFC0
F80000
F80000
F80000
F80000
F80000
F80000
F80000
F80000
F80000
F80000
FFFFC0
FFFFC0
FFFFC0
FFFFC0
F80000
F80000
F80000
F80000
F80000
F80000
F80000
F80000
F80000
F80000
F80000
FFFFC0
FFFFC0
FFFFC0
FFFFC0
ENDCHAR
STARTCHAR 00CC
ENCODING 204
SWIDTH 247 0
DWIDTH 11 0
BBX 11 43 -3 1
BITMAP
7000
7C00
FF00
3FC0
1FE0
07E0
01E0
00C0
0000
0000
03E0
03E0
03E0
03E0
03E0
03E0
03E0
03E0
03E0
03E0
03E0
03E0
03E0
03E0
03E0
03E0
03E0
03E0
03E0
03E0
03E0
03E0
03E0
03E0
03E0
03E0
03E0
03E0
03E0
03E0
03E0
03E0
03E0
ENDCHAR
STARTCHAR 00CD
ENCODING 205
SWIDTH 247 0
DWIDTH 11 0
BBX 12 44 2 0
BITMAP
0040
01E0
03E0
0FF0
3FC0
FF00
7E00
7800
2000
0000
0000
7C00
7C00
7C00
7C00
7C00
7C00
7C00
7C00
7C00
7C00
7C00
7C00
7C00
7C00
7C00
7C00
7C00
7C00
7C00
7C00
7C00
7C00
7C00
7C00
7C00
7C00
7C00
7C00
7C00
7C00
7C00
7C00
7C00
ENDCHAR
STARTCHAR 00CE
ENCODING 206
SWIDTH 247 0
DWIDTH 11 0
BBX 16 42 -3 0
BITMAP
03E0
07F0
0FF8
1F7C
3E3E
FC1F
0000
0000
0000
03E0
03E0
03E0
03E0
03E0
03E0
03E0
03E0
03E0
03E0
03E0
03E0
03E0
03E0
03E0
03E0
03E0
03E0
03E0
03E0
03E0
03E0
03E0
03E0
03E0
03E0
03E0
03E0
03E0
03E0
03E0
03E0
03E0
ENDCHAR
STARTCHAR 00CF
ENCODING 207
SWIDTH 247 0
DWIDTH 11 0
BBX 13 42 0 0
BITMAP
F8F8
F8F8
F8F8
F8F8
F8F8
F8F8
0000
0000
0000
0F80
0F80
0F80
0F80
0F80
0F80
0F80
0F80
0F80
0F80
0F80
0F80
0F80
0F80
0F80
0F80
0F80
0F80
0F80
0F80
0F80
0F80
0F80
0F80
0F80
0F80
0F80
0F80
0F80
0F80
0F80
0F80
0F80
ENDCHAR
STARTCHAR 00D0
ENCODING 208
SWIDTH 742 0
DWIDTH 33 0
BBX 31 33 0 0
BITMAP
1FFFE000
1FFFFC00
1FFFFF00
1FFFFF80
1F03FFC0
1F001FE0
1F0007F0
1F0003F8
1F0001F8
1F0000FC
1F00007C
1F00007C
1F00007E
1F00003E
FFFF803E
FFFF803E
FFFF803E
FFFF803E
1F00003E
1F00003E
1F00007E
1F00007C
1F00007C
1F0000FC
1F0001F8
1F0003F8
1F0007F0
1F001FE0
1F03FFC0
1FFFFF80
1FFFFF00
1FFFFC00
1FFFE000
ENDCHAR
STARTCHAR 00D1
ENCODING 209
SWIDTH 742 0
DWIDTH 33 0
BBX 27 41 3 0
BITMAP
01F02000
03FFF000
03FFF800
03FFF000
0107E000
00000000
00000000
00000000
FC0003E0
FC0003E0
FE0003E0
FF0003E0
FF0003E0
FF8003E0
FF8003E0
FFC003E0
FBE003E0
FBE003E0
F9F003E0
F8F803E0
F8F803E0
F87C03E0
F87C03E0
F83E03E0
F81F03E0
F81F03E0
F80F83E0
F80FC3E0
F807C3E0
F803E3E0
F803E3E0
F801F3E0
F800FBE0
F800FFE0
F8007FE0
F8007FE0
F8003FE0
F8001FE0
F8001FE0
F8000FE0
F80007E0
ENDCHAR
STARTCHAR 00D2
ENCODING 210
SWIDTH 855 0
DWIDTH 38 0
BBX 34 45 2 0
BITMAP
0018000000
001E000000
003F800000
001FC00000
000FF00000
0003FC0000
0000F80000
0000780000
0000100000
0000000000
0007F80000
003FFF0000
00FFFFC000
01FFFFE000
03F80FF000
07E003F800
0FC000FC00
1F80007E00
3F00003F00
3E00001F00
7E00001F80
7C00000F80
7C00000F80
FC00000FC0
F8000007C0
F8000007C0
F8000007C0
F8000007C0
F8000007C0
F8000007C0
F8000007C0
FC00000FC0
7C00000F80
7C00000F80
7E00001F80
3E00001F00
3F00003F00
1F80007E00
0FC000FC00
07E001F800
03FC0FF000
01FFFFE000
00FFFFC000
003FFF0000
0007F80000
ENDCHAR
STARTCHAR 00D3
ENCODING 211
SWIDTH 855 0
DWIDTH 38 0
BBX 34 45 2 -1
BITMAP
0000040000
00001E0000
00003E0000
0000FF0000
0003FC0000
000FF00000
0007E00000
0007800000
0002000000
0000000000
0007F80000
003FFF0000
00FFFFC000
01FFFFE000
03FC0FF800
07E001FC00
0FC000FC00
1F80007E00
1F00003F00
3E00001F00
7E00001F80
7C00000F80
7C00000F80
7C00000FC0
F8000007C0
F8000007C0
F8000007C0
F8000007C0
F8000007C0
F8000007C0
F8000007C0
FC00000FC0
7C00000F80
7C00000F80
7E00001F80
3E00001F00
3F00003F00
1F80007E00
0FC000FC00
07F001F800
03FC07F000
01FFFFE000
00FFFFC000
003FFF0000
0007F80000
ENDCHAR
STARTCHAR 00D4
ENCODING 212
SWIDTH 855 0
DWIDTH 38 0
BBX 34 43 2 -1
BITMAP
0003E00000
0007F00000
000FF80000
001F7C0000
003E3E0000
00FC1F0000
0000000000
0000000000
0007F80000
003FFF0000
00FFFFC000
01FFFFE000
07F80FF000
07E003F800
0FC000FC00
1F80007E00
3F00003F00
3E00001F00
7E00001F80
7C00000F80
7C00000F80
FC00000FC0
F8000007C0
F8000007C0
F8000007C0
F8000007C0
F8000007C0
F8000007C0
F8000007C0
FC00000FC0
7C00000F80
7C00000F80
7E00001F80
3E00001F00
3F00003E00
1F80007E00
0FC000FC00
07E003F800
07F80FF000
01FFFFE000
00FFFF8000
003FFF0000
0007F80000
ENDCHAR
STARTCHAR 00D5
ENCODING 213
SWIDTH 855 0
DWIDTH 38 0
BBX 34 42 2 -1
BITMAP
001F020000
003FFF0000
007FFF8000
003FFF0000
00107E0000
0000000000
0000000000
0007F80000
003FFF0000
00FFFFC000
01FFFFE000
03FC0FF800
07E001FC00
0FC000FC00
1F80007E00
3F00003F00
3E00001F00
7E00001F80
7C00000F80
7C00000F80
7C00000FC0
F8000007C0
F8000007C0
F8000007C0
F8000007C0
F8000007C0
F8000007C0
F8000007C0
FC00000FC0
7C00000F80
7C00000F80
7E00001F80
3E00001F00
3F00003F00
1F80007E00
0FC000FC00
07E001F800
03FC0FF000
01FFFFE000
00FFFFC000
003FFF0000
0007F80000
ENDCHAR
STARTCHAR 00D6
ENCODING 214
SWIDTH 855 0
DWIDTH 38 0
BBX 34 43 2 -1
BITMAP
001F3E0000
001F3E0000
001F3E0000
001F3E0000
001F3E0000
001F3E0000
0000000000
0000000000
0007F80000
003FFF0000
00FFFFC000
01FFFFE000
03FC0FF800
07E001FC00
0FC000FC00
1F80007E00
3F00003F00
3E00001F00
7E00001F80
7C00000F80
7C00000F80
FC00000FC0
F8000007C0
F8000007C0
F8000007C0
F8000007C0
F8000007C0
F8000007C0
F8000007C0
FC00000FC0
7C00000F80
7C00000F80
7E00001F80
3E00001F00
3F00003F00
1F80007E00
0FC000FC00
07E001F800
03FC0FF000
01FFFFE000
00FFFFC000
003FFF0000
0007F80000
ENDCHAR
STARTCHAR 00D7
ENCODING 215
SWIDTH 607 0
DWIDTH 27 0
BBX 21 22 3 1
BITMAP
100040
3800E0
7C01F0
FE03F8
7E03F0
3F07E0
1F8FC0
0FDF80
07FF00
03FE00
01FC00
01FC00
03FE00
07FF00
0FDF80
1F8FC0
3F07E0
7E03F0
FC01F8
7C01F0
3800E0
100040
ENDCHAR
STARTCHAR 00D8
ENCODING 216
SWIDTH 855 0
DWIDTH 38 0
BBX 34 39 2 -3
BITMAP
0000000800
0000001E00
0007F83F00
003FFF7E00
00FFFFFC00
01FFFFF800
03FC0FF800
07E003FC00
0FC003FE00
1F8007FE00
3F0007FF00
3E000F9F00
7E001F9F80
7C001F0F80
7C003E0F80
7C007C0FC0
F8007C07C0
F800F807C0
F801F007C0
F801F007C0
F803E007C0
F807C007C0
F807C007C0
FC0F800FC0
7C1F000F80
7C1F000F80
7E3E001F80
3E7C001F00
3F7C003F00
1FF8007E00
0FF000FC00
0FF001F800
07FC0FF000
07FFFFE000
0FFFFFC000
1FBFFF0000
1F07F80000
1E00000000
0600000000
ENDCHAR
STARTCHAR 00D9
ENCODING 217
SWIDTH 652 0
DWIDTH 29 0
BBX 22 45 3 -1
BITMAP
040000
0F0000
0F8000
1FE000
07F800
03FC00
00FC00
003C00
001800
000000
000000
F8007C
F8007C
F8007C
F8007C
F8007C
F8007C
F8007C
F8007C
F8007C
F8007C
F8007C
F8007C
F8007C
F8007C
F8007C
F8007C
F8007C
F8007C
F8007C
F8007C
F8007C
F8007C
F8007C
F8007C
F8007C
F8007C
7C00FC
7C00F8
7E01F8
3F87F0
1FFFE0
0FFFC0
07FF80
00FC00
ENDCHAR
STARTCHAR 00DA
ENCODING 218
SWIDTH 652 0
DWIDTH 29 0
BBX 22 45 3 -1
BITMAP
000080
0003C0
0007C0
001FE0
007F80
01FE00
00FC00
00F000
004000
000000
000000
F8007C
F8007C
F8007C
F8007C
F8007C
F8007C
F8007C
F8007C
F8007C
F8007C
F8007C
F8007C
F8007C
F8007C
F8007C
F8007C
F8007C
F8007C
F8007C
F8007C
F8007C
F8007C
F8007C
F8007C
F8007C
F8007C
7C00FC
7C00F8
7E01F8
3F87F0
1FFFE0
0FFFC0
07FF80
00FC00
ENDCHAR
STARTCHAR 00DB
ENCODING 219
SWIDTH 652 0
DWIDTH 29 0
BBX 23 43 3 -1
BITMAP
007C00
00FE00
01FF00
03EF80
07C7C0
1F83F0
000000
000000
000000
F8003E
F8003E
F8003E
F8003E
F8003E
F8003E
F8003E
F8003E
F8003E
F8003E
F8003E
F8003E
F8003E
F8003E
F8003E
F8003E
F8003E
F8003E
F8003E
F8003E
F8003E
F8003E
F8003E
F8003E
F8003E
F8003E
7C007E
7C007C
7E00FC
3F83F8
1FFFF0
0FFFE0
07FFC0
00FE00
ENDCHAR
STARTCHAR 00DC
ENCODING 220
SWIDTH 652 0
DWIDTH 29 0
BBX 22 43 3 -1
BITMAP
03EF80
03EF80
03EF80
03EF80
03EF80
03EF80
000000
000000
000000
F8007C
F8007C
F8007C
F8007C
F8007C
F8007C
F8007C
F8007C
F8007C
F8007C
F8007C
F8007C
F8007C
F8007C
F8007C
F8007C
F8007C
F8007C
F8007C
F8007C
F8007C
F8007C
F8007C
F8007C
F8007C
F8007C
7C00FC
7C00F8
7E01F8
3F83F0
1FFFF0
0FFFC0
07FF80
00FE00
ENDCHAR
STARTCHAR 00DD
ENCODING 221
SWIDTH 585 0
DWIDTH 26 0
BBX 24 44 1 0
BITMAP
000040
0000E0
0003E0
000FF0
003FC0
007F80
007E00
007800
002000
000000
000000
F8001F
FC001F
7C003E
7E003E
3E007E
3F007C
1F00FC
1F80F8
0F80F8
0FC1F0
07C1F0
07E3E0
03E3E0
03F7C0
01F7C0
01FFC0
00FF80
00FF80
007F00
007F00
003E00
003E00
003E00
003E00
003E00
003E00
003E00
003E00
003E00
003E00
003E00
003E00
003E00
ENDCHAR
STARTCHAR 00DE
ENCODING 222
SWIDTH 562 0
DWIDTH 25 0
BBX 21 33 3 0
BITMAP
F80000
F80000
F80000
F80000
F80000
F80000
F80000
FFFC00
FFFF80
FFFFC0
FFFFE0
F807F0
F803F0
F801F8
F800F8
F800F8
F800F8
F800F8
F800F8
F801F8
F803F0
F807F0
FFFFE0
FFFFC0
FFFF00
FFFC00
F80000
F80000
F80000
F80000
F80000
F80000
F80000
ENDCHAR
STARTCHAR 00DF
ENCODING 223
SWIDTH 630 0
DWIDTH 28 0
BBX 25 35 3 -1
BITMAP
01F80000
07FE0000
1FFF8000
3FFFC000
3F0FC000
7C07E000
7C03E000
F801F000
F801F000
F801F000
F801F000
F801F000
F803F000
F803E000
F80FC000
F87FC000
F87FF000
F87FFC00
F87FFE00
F800FF00
F8003F00
F8001F80
F8001F80
F8000F80
F8000F80
FF800F80
FF800F80
FF801F80
FFC01F00
FFE03F00
FBF0FE00
F9FFFC00
F8FFF800
F87FF000
001F8000
ENDCHAR
STARTCHAR 00E0
ENCODING 224
SWIDTH 697 0
DWIDTH 31 0
BBX 26 37 2 0
BITMAP
00C00000
00E00000
01F80000
01FE0000
007F8000
001FC000
000FC000
00038000
00018000
00000000
00000000
007F07C0
01FFE7C0
07FFF7C0
0FFFFFC0
1FC0FFC0
3F003FC0
3E001FC0
7E001FC0
7C000FC0
7C000FC0
F80007C0
F80007C0
F80007C0
F80007C0
F80007C0
F80007C0
FC000FC0
7C000FC0
7E001FC0
3F001FC0
3F807FC0
1FC0FFC0
0FFFF7C0
07FFF7C0
01FFC7C0
007F0000
ENDCHAR
STARTCHAR 00E1
ENCODING 225
SWIDTH 697 0
DWIDTH 31 0
BBX 26 38 2 -1
BITMAP
00004000
0000E000
0003E000
000FF000
001FC000
007F8000
007E0000
00380000
00200000
00000000
00000000
00000000
007F07C0
01FFC7C0
07FFF7C0
0FFFFFC0
1FC0FFC0
3F003FC0
3E001FC0
7E001FC0
7C000FC0
7C000FC0
F80007C0
F80007C0
F80007C0
F80007C0
F80007C0
F80007C0
FC000FC0
7C000FC0
7E001FC0
3F001FC0
3F807FC0
1FC0FFC0
0FFFF7C0
07FFF7C0
01FFC7C0
007F0000
ENDCHAR
STARTCHAR 00E2
ENCODING 226
SWIDTH 697 0
DWIDTH 31 0
BBX 26 36 2 -1
BITMAP
001F0000
003F8000
007FC000
00FBE000
01F1F000
07E0F800
00000000
00000000
00000000
00000000
007F07C0
01FFC7C0
07FFF7C0
0FFFFFC0
1FC1FFC0
3F007FC0
3E001FC0
7E001FC0
7C000FC0
7C000FC0
F80007C0
F80007C0
F80007C0
F80007C0
F80007C0
F80007C0
FC000FC0
7C000FC0
7E001FC0
3E003FC0
3F807FC0
1FC1FFC0
0FFFF7C0
07FFE7C0
03FFC7C0
007F0000
ENDCHAR
STARTCHAR 00E3
ENCODING 227
SWIDTH 697 0
DWIDTH 31 0
BBX 26 34 2 -1
BITMAP
00F81000
03FFF000
03FFF800
01FFF000
0003E000
00000000
00000000
00000000
007F07C0
01FFE7C0
07FFF7C0
0FFFFFC0
1FC0FFC0
3F003FC0
3E001FC0
7E001FC0
7C000FC0
7C000FC0
F80007C0
F80007C0
F80007C0
F80007C0
F80007C0
F80007C0
FC000FC0
7C000FC0
7E001FC0
3F001FC0
3F807FC0
1FC0FFC0
0FFFF7C0
07FFF7C0
01FFC7C0
007F0000
ENDCHAR
STARTCHAR 00E4
ENCODING 228
SWIDTH 697 0
DWIDTH 31 0
BBX 26 36 2 -1
BITMAP
00F9F000
00F9F000
00F9F000
00F9F000
00F9F000
00F9F000
00000000
00000000
00000000
00000000
003F87C0
01FFE7C0
07FFF7C0
0FFFFFC0
1FE0FFC0
3F803FC0
3F001FC0
7E000FC0
7C000FC0
7C000FC0
F80007C0
F80007C0
F80007C0
F80007C0
F80007C0
F80007C0
FC000FC0
7C000FC0
7E001FC0
3F001FC0
3F803FC0
1FE0FFC0
0FFFF7C0
07FFF7C0
01FFC7C0
007F0000
ENDCHAR
STARTCHAR 00E5
ENCODING 229
SWIDTH 697 0
DWIDTH 31 0
BBX 26 39 2 -1
BITMAP
000E0000
003F8000
007FC000
0071C000
00E0E000
00E0E000
00E0E000
0071C000
007FC000
003F8000
000E0000
00000000
00000000
007F07C0
01FFC7C0
07FFF7C0
0FFFFFC0
1FC1FFC0
3F007FC0
3E001FC0
7E001FC0
7C000FC0
7C000FC0
F80007C0
F80007C0
F80007C0
F80007C0
F80007C0
F80007C0
FC000FC0
7C000FC0
7E001FC0
3E001FC0
3F807FC0
1FC0FFC0
0FFFF7C0
07FFF7C0
01FFC7C0
007F0000
ENDCHAR
STARTCHAR 00E6
ENCODING 230
SWIDTH 1125 0
DWIDTH 50 0
BBX 47 26 2 -1
BITMAP
007F87C1FC00
01FFE7CFFF80
07FFF7DFFFC0
0FFFFFFFFFE0
1FC0FFFE07F0
3F003FF801F8
7E001FF000FC
7C000FE0007C
7C000FE0003C
F80007C0003E
F80007C0003E
F80007FFFFFE
F80007FFFFFE
F80007FFFFFE
F80007C00000
FC0007C00000
7C000FE00000
7C000FE0007C
7E001FF0007C
3F003FF800F8
1F807FFC01F0
1FC0FFFF07F0
0FFFFFFFFFE0
07FFF7DFFFC0
01FFE7CFFF00
007F0001F800
ENDCHAR
STARTCHAR 00E7
ENCODING 231
SWIDTH 630 0
DWIDTH 28 0
BBX 24 36 2 -12
BITMAP
007F00
03FFC0
07FFF0
0FFFF8
1FC1FC
3F007E
3E003E
7C003F
7C001F
F80000
F80000
F80000
F80000
F80000
F80000
F80000
7C0000
7C003F
7E003E
3F007E
1FC1FC
0FFFF8
07FFF0
03FFC0
00FF00
003000
003000
003000
003C00
007E00
002700
000300
000300
00E700
007E00
003C00
ENDCHAR
STARTCHAR 00E8
ENCODING 232
SWIDTH 652 0
DWIDTH 29 0
BBX 25 37 2 0
BITMAP
01000000
03C00000
07F00000
07FC0000
01FE0000
007F8000
001F8000
000F0000
00030000
00000000
00000000
007F0000
03FFC000
07FFF000
0FFFF800
1FC1FC00
3F007E00
3E003F00
7C001F00
7C001F00
F8000F80
F8000F80
FFFFFF80
FFFFFF80
FFFFFF80
FFFFFF80
F8000000
78000000
7C000000
7C001F00
3E003E00
3F007E00
1FC1FC00
0FFFF800
07FFF000
03FFC000
007F0000
ENDCHAR
STARTCHAR 00E9
ENCODING 233
SWIDTH 652 0
DWIDTH 29 0
BBX 25 38 2 -1
BITMAP
00008000
0001C000
0007C000
001FE000
003F8000
00FF0000
00FC0000
00700000
00400000
00000000
00000000
00000000
007F0000
01FFE000
07FFF000
0FFFF800
1FC1FC00
3F007E00
3E003F00
7C001F00
7C001F00
F8000F80
F8000F80
FFFFFF80
FFFFFF80
FFFFFF80
FFFFFF80
F8000000
78000000
7C000000
7E001F00
3E003E00
3F007E00
1FC1FC00
0FFFF800
07FFF000
01FFC000
007F0000
ENDCHAR
STARTCHAR 00EA
ENCODING 234
SWIDTH 652 0
DWIDTH 29 0
BBX 26 36 2 -1
BITMAP
003F0000
007F8000
00FFC000
01F3E000
03E1F000
07C0F800
00000000
00000000
00000000
00000000
003F8000
01FFE000
07FFF800
0FFFFC00
1FC0FE00
3F003F00
3E001F80
7C000F80
7C000F80
F80007C0
F80007C0
FFFFFFC0
FFFFFFC0
FFFFFFC0
FFFFFFC0
F8000000
7C000000
7C000000
7E000F80
3E001F00
3F803F00
1FE0FE00
0FFFFC00
07FFF800
01FFE000
007F0000
ENDCHAR
STARTCHAR 00EB
ENCODING 235
SWIDTH 652 0
DWIDTH 29 0
BBX 25 36 2 -1
BITMAP
01F7C000
01F7C000
01F7C000
01F7C000
01F7C000
01F7C000
00000000
00000000
00000000
00000000
007F0000
01FFE000
07FFF000
0FFFF800
1FC1FC00
3F007E00
3E003F00
7C001F00
7C001F00
F8000F80
F8000F80
FFFFFF80
FFFFFF80
FFFFFF80
FFFFFF80
F8000000
78000000
7C000000
7E001F00
3E003E00
3F007E00
1FC1FC00
0FFFF800
07FFF000
01FFC000
007F0000
ENDCHAR
STARTCHAR 00EC
ENCODING 236
SWIDTH 247 0
DWIDTH 11 0
BBX 12 36 -3 1
BITMAP
7000
7C00
FF00
7FC0
1FE0
07F0
01E0
00C0
0000
0000
0000
03E0
03E0
03E0
03E0
03E0
03E0
03E0
03E0
03E0
03E0
03E0
03E0
03E0
03E0
03E0
03E0
03E0
03E0
03E0
03E0
03E0
03E0
03E0
03E0
03E0
ENDCHAR
STARTCHAR 00ED
ENCODING 237
SWIDTH 247 0
DWIDTH 11 0
BBX 12 37 2 0
BITMAP
0040
01E0
03E0
0FF0
3FC0
FF00
7E00
7800
2000
0000
0000
0000
7C00
7C00
7C00
7C00
7C00
7C00
7C00
7C00
7C00
7C00
7C00
7C00
7C00
7C00
7C00
7C00
7C00
7C00
7C00
7C00
7C00
7C00
7C00
7C00
7C00
ENDCHAR
STARTCHAR 00EE
ENCODING 238
SWIDTH 247 0
DWIDTH 11 0
BBX 17 35 -3 0
BITMAP
03E000
07F000
0FF800
1F7C00
3E3E00
FC1F80
000000
000000
000000
000000
03E000
03E000
03E000
03E000
03E000
03E000
03E000
03E000
03E000
03E000
03E000
03E000
03E000
03E000
03E000
03E000
03E000
03E000
03E000
03E000
03E000
03E000
03E000
03E000
03E000
ENDCHAR
STARTCHAR 00EF
ENCODING 239
SWIDTH 247 0
DWIDTH 11 0
BBX 13 35 0 0
BITMAP
F8F8
F8F8
F8F8
F8F8
F8F8
F8F8
0000
0000
0000
0000
0F80
0F80
0F80
0F80
0F80
0F80
0F80
0F80
0F80
0F80
0F80
0F80
0F80
0F80
0F80
0F80
0F80
0F80
0F80
0F80
0F80
0F80
0F80
0F80
0F80
ENDCHAR
STARTCHAR 00F0
ENCODING 240
SWIDTH 675 0
DWIDTH 30 0
BBX 27 35 2 -1
BITMAP
00E03000
07F8F800
03FFFC00
00FFF000
01FFC000
07FFE000
1FF3F800
0F81FC00
0400FC00
003F7E00
01FFFF00
03FFFF00
0FFFFF80
1FE0FF80
1F803FC0
3F000FC0
7E000FC0
7C0007E0
7C0007E0
F80003E0
F80003E0
F80003E0
F80003E0
F80003E0
F80003E0
7C0007C0
7C0007C0
7E000FC0
3F001F80
1F803F00
1FE0FF00
0FFFFE00
07FFF800
01FFF000
003F8000
ENDCHAR
STARTCHAR 00F1
ENCODING 241
SWIDTH 630 0
DWIDTH 28 0
BBX 22 33 3 0
BITMAP
07C080
0FFFC0
0FFFE0
0FFFC0
040F00
000000
000000
000000
F87E00
F9FFC0
FFFFE0
FFFFF0
FF83F8
FE01F8
FC00FC
FC00FC
F8007C
F8007C
F8007C
F8007C
F8007C
F8007C
F8007C
F8007C
F8007C
F8007C
F8007C
F8007C
F8007C
F8007C
F8007C
F8007C
F8007C
ENDCHAR
STARTCHAR 00F2
ENCODING 242
SWIDTH 675 0
DWIDTH 30 0
BBX 27 37 2 0
BITMAP
00800000
01E00000
03F80000
03FE0000
00FF0000
003FC000
000FC000
00078000
00018000
00000000
00000000
003F8000
01FFF000
07FFF800
0FFFFE00
1FC0FF00
3F803F80
3E001F80
7E000FC0
7C0007C0
7C0007E0
F80003E0
F80003E0
F80003E0
F80003E0
F80003E0
F80003E0
7C0007C0
7C0007C0
7E000FC0
3F001F80
3F803F00
1FC0FE00
0FFFFC00
07FFF800
01FFF000
007F8000
ENDCHAR
STARTCHAR 00F3
ENCODING 243
SWIDTH 675 0
DWIDTH 30 0
BBX 27 38 2 -1
BITMAP
00004000
0000E000
0003E000
000FF000
001FC000
007F8000
007E0000
00780000
00200000
00000000
00000000
00000000
003F8000
01FFF000
03FFFC00
0FFFFE00
1FE0FF00
3F803F80
3F001F80
7E000FC0
7C0007C0
7C0007E0
F80003E0
F80003E0
F80003E0
F80003E0
F80003E0
F80003E0
7C0007C0
7C0007C0
7E000FC0
3F001F80
1F803F00
1FE0FF00
0FFFFE00
07FFF800
01FFF000
003F8000
ENDCHAR
STARTCHAR 00F4
ENCODING 244
SWIDTH 675 0
DWIDTH 30 0
BBX 27 36 2 -1
BITMAP
001F0000
003F8000
007FC000
00FBE000
01F1F000
07E0F800
00000000
00000000
00000000
00000000
003F8000
01FFF000
03FFFC00
0FFFFE00
1FE0FF00
1F803F80
3F001F80
7E000FC0
7C0007C0
7C0007E0
F80003E0
F80003E0
F80003E0
F80003E0
F80003E0
F80003E0
7C0007C0
7C0007C0
7E000FC0
3F001F80
1F803F00
1FE0FF00
0FFFFE00
03FFF800
01FFF000
003F8000
ENDCHAR
STARTCHAR 00F5
ENCODING 245
SWIDTH 675 0
DWIDTH 30 0
BBX 27 34 2 -1
BITMAP
00F03000
03FFF000
03FFF800
01FFF000
0103C000
00000000
00000000
00000000
003F8000
01FFF000
07FFF800
0FFFFE00
1FC0FF00
3F803F80
3F001F80
7E000FC0
7C0007C0
7C0007E0
F80003E0
F80003E0
F80003E0
F80003E0
F80003E0
F80003E0
7C0007C0
7C0007C0
7E000FC0
3F001F80
1F803F00
1FE0FF00
0FFFFE00
07FFF800
01FFF000
007F8000
ENDCHAR
STARTCHAR 00F6
ENCODING 246
SWIDTH 675 0
DWIDTH 30 0
BBX 27 36 2 -1
BITMAP
01F3E000
01F3E000
01F3E000
01F3E000
01F3E000
01F3E000
00000000
00000000
00000000
00000000
003F8000
01FFF000
07FFF800
0FFFFE00
1FC0FF00
3F803F80
3E001F80
7E000FC0
7C0007C0
7C0007E0
F80003E0
F80003E0
F80003E0
F80003E0
F80003E0
F80003E0
7C0007C0
7C0007C0
7E000FC0
3F001F80
3F803F00
1FC0FE00
0FFFFC00
07FFF800
01FFE000
007F8000
ENDCHAR
STARTCHAR 00F7
ENCODING 247
SWIDTH 607 0
DWIDTH 27 0
BBX 23 22 2 0
BITMAP
007C00
007C00
007C00
007C00
000000
000000
000000
000000
000000
FFFFFE
FFFFFE
FFFFFE
FFFFFE
000000
000000
000000
000000
007C00
007C00
007C00
007C00
007C00
ENDCHAR
STARTCHAR 00F8
ENCODING 248
SWIDTH 675 0
DWIDTH 30 0
BBX 27 30 2 -3
BITMAP
00000C00
00000F00
003F9F00
01FFFE00
03FFFE00
0FFFFE00
1FE0FF00
1F80FF80
3F01FF80
7E01EFC0
7C03E7C0
7C07C7E0
F807C3E0
F80F83E0
F81F03E0
F81F03E0
F83E03E0
F87C03E0
7C7C07C0
7CF807C0
7EF80FC0
3FF01F80
1FE03F00
1FE0FF00
0FFFFE00
0FFFF800
0FFFF000
1F3F8000
1E000000
06000000
ENDCHAR
STARTCHAR 00F9
ENCODING 249
SWIDTH 630 0
DWIDTH 28 0
BBX 22 38 3 -1
BITMAP
040000
0E0000
0F8000
1FE000
0FF800
03FC00
00FC00
003C00
001800
000000
000000
000000
F8007C
F8007C
F8007C
F8007C
F8007C
F8007C
F8007C
F8007C
F8007C
F8007C
F8007C
F8007C
F8007C
F8007C
F8007C
F8007C
F8007C
F8007C
FC00FC
7C00FC
7E01FC
3F07FC
3FFFFC
1FFFFC
07FE7C
01F800
ENDCHAR
STARTCHAR 00FA
ENCODING 250
SWIDTH 630 0
DWIDTH 28 0
BBX 22 38 3 -1
BITMAP
000080
0003C0
0007C0
001FE0
007F80
00FE00
00FC00
00F000
004000
000000
000000
000000
F8007C
F8007C
F8007C
F8007C
F8007C
F8007C
F8007C
F8007C
F8007C
F8007C
F8007C
F8007C
F8007C
F8007C
F8007C
F8007C
F8007C
F8007C
FC00FC
7C00FC
7E01FC
3F07FC
3FFFFC
1FFFFC
07FE7C
01F800
ENDCHAR
STARTCHAR 00FB
ENCODING 251
SWIDTH 630 0
DWIDTH 28 0
BBX 23 36 3 -1
BITMAP
007C00
00FE00
01FF00
03EF80
07C7C0
1F83E0
000000
000000
000000
000000
F8003E
F8003E
F8003E
F8003E
F8003E
F8003E
F8003E
F8003E
F8003E
F8003E
F8003E
F8003E
F8003E
F8003E
F8003E
F8003E
F8003E
F8003E
FC007E
7C007E
7E00FE
3F83FE
3FFFFE
1FFFBE
07FF3E
01FC00
ENDCHAR
STARTCHAR 00FC
ENCODING 252
SWIDTH 630 0
DWIDTH 28 0
BBX 22 36 3 -1
BITMAP
07CF80
07CF80
07CF80
07CF80
07CF80
07CF80
000000
000000
000000
000000
F8007C
F8007C
F8007C
F8007C
F8007C
F8007C
F8007C
F8007C
F8007C
F8007C
F8007C
F8007C
F8007C
F8007C
F8007C
F8007C
F8007C
F8007C
FC00FC
7C00FC
7E01FC
3F07FC
3FFFFC
1FFFFC
07FE7C
01F800
ENDCHAR
STARTCHAR 00FD
ENCODING 253
SWIDTH 585 0
DWIDTH 26 0
BBX 25 45 0 -8
BITMAP
00002000
0000F000
0003F000
0007F800
001FE000
007F8000
007E0000
00380000
00200000
00000000
00000000
00000000
F8000F80
7C000F00
7C001F00
7C001F00
3E001E00
3E003E00
1F003C00
1F007C00
1F007800
0F80F800
0F80F800
07C0F000
07C1F000
03C1E000
03E3E000
03E3E000
01E3C000
01F7C000
00F78000
00FF8000
00FF0000
007F0000
007F0000
003E0000
003E0000
007C0000
007C0000
007C0000
00F80000
00F80000
01F00000
01F00000
01E00000
ENDCHAR
STARTCHAR 00FE
ENCODING 254
SWIDTH 675 0
DWIDTH 30 0
BBX 26 41 3 -8
BITMAP
F8000000
F8000000
F8000000
F8000000
F8000000
F8000000
F8000000
F8000000
F83F8000
F8FFF000
FBFFF800
FFFFFC00
FFC1FE00
FF007F00
FE003F00
FE001F80
FC000F80
FC000FC0
F80007C0
F80007C0
F80007C0
F80007C0
F80007C0
F80007C0
FC000FC0
FC000F80
FE001F80
FE001F00
FF803F00
FFC0FE00
FFFFFC00
FBFFF800
F8FFE000
F83F8000
F8000000
F8000000
F8000000
F8000000
F8000000
F8000000
F8000000
ENDCHAR
STARTCHAR 00FF
ENCODING 255
SWIDTH 585 0
DWIDTH 26 0
BBX 25 43 0 -8
BITMAP
01F3E000
01F3E000
01F3E000
01F3E000
01F3E000
01F3E000
00000000
00000000
00000000
00000000
F8000F80
7C000F00
7C001F00
7E001F00
3E001E00
3E003E00
1F003C00
1F007C00
1F807C00
0F807800
0F80F800
07C0F000
07C0F000
03E1F000
03E1E000
03E3E000
01F3C000
01F3C000
00FFC000
00FF8000
00FF8000
007F0000
007F0000
003F0000
003E0000
007E0000
007C0000
007C0000
00FC0000
00F80000
01F80000
01F00000
01F00000
ENDCHAR
STARTCHAR 0131
ENCODING 305
SWIDTH 247 0
DWIDTH 11 0
BBX 5 25 3 0
BITMAP
F8
F8
F8
F8
F8
F8
F8
F8
F8
F8
F8
F8
F8
F8
F8
F8
F8
F8
F8
F8
F8
F8
F8
F8
F8
ENDCHAR
STARTCHAR 0141
ENCODING 321
SWIDTH 450 0
DWIDTH 20 0
BBX 19 33 1 0
BITMAP
1F0000
1F0000
1F0000
1F0000
1F0000
1F0000
1F0000
1F0000
1F0C00
1F1C00
1F7C00
1FFC00
1FF800
1FF000
1FE000
3F8000
FF0000
FF0000
FF0000
FF0000
DF0000
1F0000
1F0000
1F0000
1F0000
1F0000
1F0000
1F0000
1F0000
1FFFE0
1FFFE0
1FFFE0
1FFFE0
ENDCHAR
STARTCHAR 0142
ENCODING 322
SWIDTH 292 0
DWIDTH 13 0
BBX 12 33 1 0
BITMAP
1F00
1F00
1F00
1F00
1F00
1F00
1F00
1F00
1F00
1F10
1F70
1FF0
1FF0
1FF0
1FC0
3F80
FF00
FF00
FF00
DF00
9F00
1F00
1F00
1F00
1F00
1F00
1F00
1F00
1F00
1F00
1F00
1F00
1F00
ENDCHAR
STARTCHAR 0152
ENCODING 338
SWIDTH 1102 0
DWIDTH 49 0
BBX 45 34 2 -1
BITMAP
0007FC07FFF8
003FFF87FFF8
00FFFFC7FFF8
03FFFFF7FFF8
07FC0FFFC000
0FE001FFC000
1FC000FFC000
1F80007FC000
3F00003FC000
3E00001FC000
7C00000FC000
7C00000FC000
7C00000FC000
F8000007C000
F8000007FFF8
F8000007FFF8
F8000007FFF8
F8000007FFF8
F8000007C000
F8000007C000
FC000007C000
7C00000FC000
7C00000FC000
7E00001FC000
3E00001FC000
3F00003FC000
1F80007FC000
0FC000FFC000
0FE001FFC000
07FC0FF7FFF8
01FFFFE7FFF8
00FFFFC7FFF8
003FFF07FFF8
0007F8000000
ENDCHAR
STARTCHAR 0153
ENCODING 339
SWIDTH 1147 0
DWIDTH 51 0
BBX 48 26 2 -1
BITMAP
003F8000FE00
01FFF007FFC0
07FFFC1FFFE0
0FFFFE3FFFF0
1FE07F7F03F8
3F801FFC00FC
3E000FF8007E
7E0007F0003E
7C0007F0001F
F80003E0001F
F80003E0001F
F80003FFFFFF
F80003FFFFFF
F80003FFFFFF
F80003E00000
FC0003E00000
7C0007F00000
7C0007F0003E
3E000FF8003E
3F001FFC007C
1F803F7E00F8
0FE0FF3F83F8
07FFFE1FFFF0
03FFF80FFFE0
00FFF007FF80
003F8000FE00
ENDCHAR
STARTCHAR 0160
ENCODING 352
SWIDTH 495 0
DWIDTH 22 0
BBX 21 43 1 -1
BITMAP
1F07E0
0F8F80
07DF00
03FE00
01FC00
00F800
000000
000000
01FC00
07FF00
0FFF80
1FFFC0
3F07E0
3E03E0
7E03F0
7C01F0
7C01F0
7C0000
7C0000
7E0000
3F0000
3FC000
1FF800
1FFE00
07FF80
03FFC0
00FFE0
001FF0
0007F0
0001F8
0001F8
0000F8
0000F8
F800F8
F800F8
FC00F8
7C01F0
7E03F0
3F07E0
3FFFE0
1FFFC0
07FF00
01FC00
ENDCHAR
STARTCHAR 0161
ENCODING 353
SWIDTH 427 0
DWIDTH 19 0
BBX 17 36 1 -1
BITMAP
7C1F00
3E3E00
1F7C00
0FF800
07F000
03E000
000000
000000
000000
000000
03F000
0FFC00
1FFE00
3FFF00
3E3F80
7C1F80
7C1F80
7C0000
7E0000
7F0000
3FE000
3FF800
1FFE00
07FF00
01FF00
003F80
001F80
F80F80
F80F80
F80F80
7C0F80
7E1F00
3FFF00
3FFE00
0FFC00
03F000
ENDCHAR
STARTCHAR 0178
ENCODING 376
SWIDTH 585 0
DWIDTH 26 0
BBX 27 42 0 0
BITMAP
01F1F000
01F1F000
01F1F000
01F1F000
01F1F000
01F1F000
00000000
00000000
00000000
FC0007E0
7C0007C0
7E000FC0
3E000F80
3F001F00
1F001F00
1F803E00
0F803E00
07C07C00
07C07C00
03E0F800
03E0F800
01F1F000
01F9F000
00FBE000
00FFE000
007FC000
007FC000
003F8000
003F8000
001F0000
001F0000
001F0000
001F0000
001F0000
001F0000
001F0000
001F0000
001F0000
001F0000
001F0000
001F0000
001F0000
ENDCHAR
STARTCHAR 017D
ENCODING 381
SWIDTH 472 0
DWIDTH 21 0
BBX 20 42 0 0
BITMAP
1F03E0
0F87C0
07CF80
03FF00
01FE00
00FC00
000000
000000
000000
7FFFE0
7FFFE0
7FFFE0
7FFFE0
0003E0
0003C0
0007C0
000F80
000F80
001F00
001F00
003E00
007C00
007C00
00F800
00F800
01F000
03F000
03E000
07E000
07C000
0F8000
0F8000
1F0000
3F0000
3E0000
7E0000
7C0000
F80000
FFFFF0
FFFFF0
FFFFF0
FFFFF0
ENDCHAR
STARTCHAR 017E
ENCODING 382
SWIDTH 405 0
DWIDTH 18 0
BBX 18 35 0 0
BITMAP
3E07C0
1F0F80
0F9F00
07FE00
03FC00
01F800
000000
000000
000000
000000
7FFF80
7FFF80
7FFF80
7FFF80
000F80
001F00
003F00
003E00
007C00
00FC00
00F800
01F000
03F000
03E000
07C000
0F8000
1F8000
1F0000
3E0000
7E0000
7C0000
FFFFC0
FFFFC0
FFFFC0
FFFFC0
ENDCHAR
STARTCHAR 0192
ENCODING 402
SWIDTH 562 0
DWIDTH 25 0
BBX 22 44 1 -7
BITMAP
00001C
00007C
0000FC
0001F8
0003F0
0007C0
000780
000780
000F80
000F00
000F00
00FFF0
01FFF0
01FFF0
01FFF0
001E00
001E00
001E00
003E00
003E00
003C00
003C00
003C00
003C00
007C00
007800
007800
007800
007800
007800
00F800
00F000
00F000
00F000
00F000
01F000
01E000
01E000
03E000
0FC000
7FC000
FF8000
FF0000
F80000
ENDCHAR
STARTCHAR 02C6
ENCODING 710
SWIDTH 562 0
DWIDTH 25 0
BBX 16 6 4 29
BITMAP
03E0
07F0
0FF8
1F7C
3E3E
FC1F
ENDCHAR
STARTCHAR 02C7
ENCODING 711
SWIDTH 562 0
DWIDTH 25 0
BBX 16 6 5 29
BITMAP
F83F
7C7C
3EF8
1FF0
0FE0
07C0
ENDCHAR
STARTCHAR 02D8
ENCODING 728
SWIDTH 562 0
DWIDTH 25 0
BBX 17 5 4 29
BITMAP
F00780
7C1F00
7FFF00
1FFC00
07F000
ENDCHAR
STARTCHAR 02D9
ENCODING 729
SWIDTH 562 0
DWIDTH 25 0
BBX 5 6 10 29
BITMAP
F8
F8
F8
F8
F8
F8
ENDCHAR
STARTCHAR 02DA
ENCODING 730
SWIDTH 562 0
DWIDTH 25 0
BBX 11 11 7 27
BITMAP
0E00
3F80
7FC0
71C0
E0E0
E0E0
E0E0
71C0
7FC0
3F80
0E00
ENDCHAR
STARTCHAR 02DB
ENCODING 731
SWIDTH 562 0
DWIDTH 25 0
BBX 8 9 8 -8
BITMAP
38
70
60
E0
E0
F0
FF
7F
3F
ENDCHAR
STARTCHAR 02DC
ENCODING 732
SWIDTH 562 0
DWIDTH 25 0
BBX 16 5 4 28
BITMAP
3E04
FFFE
FFFF
7FFE
4078
ENDCHAR
STARTCHAR 02DD
ENCODING 733
SWIDTH 562 0
DWIDTH 25 0
BBX 17 6 4 29
BITMAP
07CF80
0F9F00
1F3E00
3E7C00
7C7800
F8F000
ENDCHAR
STARTCHAR 2013
ENCODING 8211
SWIDTH 495 0
DWIDTH 22 0
BBX 19 4 2 11
BITMAP
FFFFE0
FFFFE0
FFFFE0
FFFFE0
ENDCHAR
STARTCHAR 2014
ENCODING 8212
SWIDTH 990 0
DWIDTH 44 0
BBX 41 4 2 11
BITMAP
FFFFFFFFFF80
FFFFFFFFFF80
FFFFFFFFFF80
FFFFFFFFFF80
ENDCHAR
STARTCHAR 2018
ENCODING 8216
SWIDTH 270 0
DWIDTH 12 0
BBX 5 11 4 21
BITMAP
18
78
78
E0
E0
F8
F8
F8
F8
F8
F8
ENDCHAR
STARTCHAR 2019
ENCODING 8217
SWIDTH 270 0
DWIDTH 12 0
BBX 5 11 4 21
BITMAP
F8
F8
F8
F8
F8
38
38
78
F0
F0
C0
ENDCHAR
STARTCHAR 201A
ENCODING 8218
SWIDTH 270 0
DWIDTH 12 0
BBX 5 11 4 -6
BITMAP
F8
F8
F8
F8
F8
38
38
78
F0
E0
C0
ENDCHAR
STARTCHAR 201C
ENCODING 8220
SWIDTH 427 0
DWIDTH 19 0
BBX 12 11 4 21
BITMAP
1830
78F0
78F0
E1C0
E1C0
F9F0
F9F0
F9F0
F9F0
F9F0
F9F0
ENDCHAR
STARTCHAR 201D
ENCODING 8221
SWIDTH 427 0
DWIDTH 19 0
BBX 12 11 4 21
BITMAP
F9F0
F9F0
F9F0
F9F0
F9F0
3870
3870
78F0
F1E0
F1E0
C180
ENDCHAR
STARTCHAR 201E
ENCODING 8222
SWIDTH 427 0
DWIDTH 19 0
BBX 12 11 4 -6
BITMAP
F9F0
F9F0
F9F0
F9F0
F9F0
3870
3870
78F0
F1E0
E1C0
C180
ENDCHAR
STARTCHAR 2020
ENCODING 8224
SWIDTH 562 0
DWIDTH 25 0
BBX 21 43 2 -11
BITMAP
00F800
00F800
00F800
00F800
00F800
00F800
00F800
00F800
00F800
FFFFF8
FFFFF8
FFFFF8
FFFFF8
00F800
00F800
00F800
00F800
00F800
00F800
00F800
00F800
00F800
00F800
00F800
00F800
00F800
00F800
00F800
00F800
00F800
00F800
00F800
00F800
00F800
00F800
00F800
00F800
00F800
00F800
00F800
00F800
00F800
00F800
ENDCHAR
STARTCHAR 2021
ENCODING 8225
SWIDTH 562 0
DWIDTH 25 0
BBX 21 43 2 -11
BITMAP
00F800
00F800
00F800
00F800
00F800
00F800
00F800
FFFFF8
FFFFF8
FFFFF8
FFFFF8
00F800
00F800
00F800
00F800
00F800
00F800
00F800
00F800
00F800
00F800
00F800
00F800
00F800
00F800
00F800
00F800
00F800
FFFFF8
FFFFF8
FFFFF8
FFFFF8
00F800
00F800
00F800
00F800
00F800
00F800
00F800
00F800
00F800
00F800
00F800
ENDCHAR
STARTCHAR 2022
ENCODING 8226
SWIDTH 607 0
DWIDTH 27 0
BBX 14 14 7 10
BITMAP
07C0
1FE0
3FF0
7FF8
7FFC
FFFC
FFFC
FFFC
FFFC
FFFC
7FF8
3FF0
1FE0
0FC0
ENDCHAR
STARTCHAR 2026
ENCODING 8230
SWIDTH 990 0
DWIDTH 44 0
BBX 35 6 5 0
BITMAP
F801F003E0
F801F003E0
F801F003E0
F801F003E0
F801F003E0
F801F003E0
ENDCHAR
STARTCHAR 2030
ENCODING 8240
SWIDTH 1237 0
DWIDTH 55 0
BBX 50 35 2 -1
BITMAP
07E00000000000
1FF800E0000000
3FFC00E0000000
7FFE01C0000000
7C3E0180000000
F81F0380000000
F00F0700000000
F00F0700000000
F00F0E00000000
F00F0C00000000
F81F1C00000000
7C3E3800000000
7FFE3800000000
3FFC7000000000
1FF87000000000
07E0E000000000
0001C000000000
0001C000000000
000383F001F800
000387FC03FE00
00071FFE0FFF00
00061FFF0FFF80
000E3E1F1F0F80
001C3C0F9E07C0
001C7807BC03C0
00387807BC03C0
00387807BC03C0
00707807BC03C0
00E07807BC03C0
00E03C0F1E0780
01C03E1F1F0F80
01C01FFE0FFF00
03801FFE0FFF00
07000FF807FC00
000003F001F800
ENDCHAR
STARTCHAR 2039
ENCODING 8249
SWIDTH 202 0
DWIDTH 9 0
BBX 6 16 2 6
BITMAP
04
0C
1C
3C
7C
F8
F0
E0
F0
F8
7C
3C
1C
0C
04
04
ENDCHAR
STARTCHAR 203A
ENCODING 8250
SWIDTH 202 0
DWIDTH 9 0
BBX 6 16 2 6
BITMAP
80
C0
E0
F0
F8
7C
3C
1C
3C
7C
F8
F0
E0
C0
80
80
ENDCHAR
STARTCHAR 2044
ENCODING 8260
SWIDTH 180 0
DWIDTH 8 0
BBX 17 33 -4 0
BITMAP
000380
000700
000700
000F00
000E00
001E00
001C00
001C00
003800
003800
007800
007000
007000
00E000
00E000
01E000
01C000
03C000
038000
038000
070000
070000
0F0000
0E0000
0E0000
1C0000
1C0000
3C0000
380000
380000
700000
700000
F00000
ENDCHAR
STARTCHAR 2122
ENCODING 8482
SWIDTH 990 0
DWIDTH 44 0
BBX 41 19 0 13
BITMAP
FFFE1FC00000
FFFE1FC03F80
FFFE1FE03F80
FFFE1FE07F80
07C01FE07F80
07C01FF0FF80
07C01FF0FF80
07C01F70EF80
07C01F79EF80
07C01F79EF80
07C01F39CF80
07C01F3FCF80
07C01F3FCF80
07C01F1F8F80
07C01F1F8F80
07C01F1F8F80
07C01F0F0F80
07C01F0F0F80
07C01F0F0F80
ENDCHAR
STARTCHAR 2212
ENCODING 8722
SWIDTH 607 0
DWIDTH 27 0
BBX 22 4 2 9
BITMAP
FFFFFC
FFFFFC
FFFFFC
FFFFFC
ENDCHAR
STARTCHAR FB01
ENCODING 64257
SWIDTH 495 0
DWIDTH 22 0
BBX 18 33 1 0
BITMAP
01E7C0
07E7C0
0FE7C0
1FE7C0
3F87C0
3E07C0
3E0000
3E0000
FFFFC0
FFFFC0
FFFFC0
FFFFC0
3E07C0
3E07C0
3E07C0
3E07C0
3E07C0
3E07C0
3E07C0
3E07C0
3E07C0
3E07C0
3E07C0
3E07C0
3E07C0
3E07C0
3E07C0
3E07C0
3E07C0
3E07C0
3E07C0
3E07C0
3E07C0
ENDCHAR
STARTCHAR FB02
ENCODING 64258
SWIDTH 495 0
DWIDTH 22 0
BBX 18 33 1 0
BITMAP
01E7C0
07E7C0
0FE7C0
1FE7C0
3F87C0
3E07C0
3E07C0
3E07C0
FFFFC0
FFFFC0
FFFFC0
FFFFC0
3E07C0
3E07C0
3E07C0
3E07C0
3E07C0
3E07C0
3E07C0
3E07C0
3E07C0
3E07C0
3E07C0
3E07C0
3E07C0
3E07C0
3E07C0
3E07C0
3E07C0
3E07C0
3E07C0
3E07C0
3E07C0
ENDCHAR
ENDFONT
